<?xml version="1.0" encoding="utf-8"?>
<!-- Generator: Adobe Illustrator 18.1.1, SVG Export Plug-In . SVG Version: 6.00 Build 0)  -->
<!DOCTYPE svg PUBLIC "-//W3C//DTD SVG 1.1//EN" "http://www.w3.org/Graphics/SVG/1.1/DTD/svg11.dtd">
<svg version="1.1" id="Layer_1" xmlns="http://www.w3.org/2000/svg" xmlns:xlink="http://www.w3.org/1999/xlink" x="0px" y="0px"
	 viewBox="0 0 64 61" enable-background="new 0 0 64 61" xml:space="preserve">
<g>
	<g>
		<path d="M32,25c0,0,0.2-0.2,0.2-0.2C32,24.9,32,24.9,32,25z M30.8,23.5l-0.1-0.1C30.8,23.6,30.8,23.7,30.8,23.5z M14.9,13.6
			c-0.1,0.2-0.3,0.6-0.6,1.1L14.9,13.6z M56.3,26.1l0.7,0.3C56.1,25.6,56.5,26,56.3,26.1z M1.6,44.4C1.6,44.4,1.5,44.5,1.6,44.4
			C1.6,44.5,1.6,44.4,1.6,44.4L1.6,44.4z M14.3,14.8c0.1-0.1,0.1-0.1,0.2-0.1C14.5,14.5,14.5,14.5,14.3,14.8z M56.2,26L56.2,26
			c0.1,0.1,0.1,0.1,0.1,0.1L56.2,26z M16.7,20.5c-0.2,0.4-0.3,0.6-0.4,0.7C16.3,21.2,16.5,21.1,16.7,20.5z M27.2,13.9l-0.1-0.1
			c0,0.2,0.1,0.5,0.3,1L27.2,13.9z M32.9,24.1l-0.3,0.1l0.6,0L32.9,24.1z M47,21.1c-0.6-0.1-1.3-0.1-1.9-0.2
			C46.4,21,47.1,21.5,47,21.1z M63.8,44.6c0,0.9,0.2,0.6,0.2,0.7C64,43.8,63.7,44.7,63.8,44.6z M45,47.7c0.1,0,0.1,0,0.2,0
			c0.2,0,0.4,0,0.8,0C45.7,47.6,47,47.6,45,47.7z M45.2,47.7C44.3,47.7,45.7,47.8,45.2,47.7L45.2,47.7z M48.9,47.9
			c1.2-0.1,0.9-0.1,0.3-0.3L48,47.7C48.3,47.8,49.3,47.8,48.9,47.9z M50.3,47.4l-0.6,0C49.8,47.4,49.9,47.5,50.3,47.4z M48.4,47.5
			l1.3-0.1c-0.2-0.1-0.2-0.2-0.6,0C49.2,47.4,49,47.4,48.4,47.5z M47.7,47.5c-0.6-0.1-1.5-0.1-0.3-0.2
			C45.2,47.3,45.5,47.5,47.7,47.5z M55.8,47.7c0.1,0,0.1,0.1,0.1,0.1c0-0.1,0-0.2-0.1-0.3L55,47.6C55.3,47.6,55.6,47.6,55.8,47.7z
			 M55.9,47.5c0,0,0.5-0.1,0.5-0.1C55.9,47.4,55.9,47.4,55.9,47.5z M56,48.6c0,0,0-0.1,0.1-0.2c0,0,0-0.1,0-0.1c0,0-0.1-0.2-0.1-0.2
			c0,0,0,0,0.1,0.1c0,0.1,0.1,0.1,0,0.2C56.1,48.5,56,48.6,56,48.6z M53.7,51.4c-0.2,0.3-0.4,0.5-0.6,0.8c0.2-0.2,0.4-0.5,0.7-0.7
			c0.2-0.3,0.5-0.6,0.8-0.9c0.2-0.5-0.6,0.4-0.3-0.1C54.1,50.8,53.9,51.1,53.7,51.4z M53.2,52.2c-0.2,0.3-0.5,0.5-0.7,0.8
			C52.7,52.8,53,52.5,53.2,52.2z M56.4,48.1c0,0,0.3-0.2,0.3-0.2c0-0.1,0-0.1,0.1-0.2C56.7,47.8,56.5,47.9,56.4,48.1z M56.8,47.6
			L56.8,47.6C56.8,47.7,56.8,47.6,56.8,47.6z M47.2,56l0.1,0l0,0L47.2,56z M51.9,53.7c-0.3,0.1-0.8,0.3-0.8,0.4
			C51.4,54,51.6,53.9,51.9,53.7z M55.6,49.8C55.6,49.8,55.6,49.8,55.6,49.8C55.5,49.9,55.5,49.9,55.6,49.8z M48.5,55.6
			c0.3-0.1,0.6-0.2,0.8-0.3c0.2-0.1,0.4-0.2,0.4-0.2l-0.1,0.1L50,55c-0.6,0.2-0.9,0.4-1.7,0.4c-0.8,0.4-0.9,0.5-1,0.5
			c0,0,0.2,0,0.4-0.1C47.9,55.8,48.2,55.7,48.5,55.6z M46.5,56.1c0.2-0.1,0.4-0.2,0.4-0.2l0.2-0.3c0,0-1,0.6-1.1,0.5
			C46.1,56.3,46.3,56.2,46.5,56.1z M44.5,56.2l-0.7,0.1l0.6,0L44.5,56.2z M7.3,30.7c-0.1,0.4-0.1,0.5-0.1,0.6
			C7.3,30.8,7.4,30.6,7.3,30.7z M30,35.2c-0.1,0.1-0.1,0.2-0.2,0.3c-0.2,0.5-0.4,1-0.5,1.7C29.5,36.6,29.8,35.9,30,35.2z M59.1,53.6
			c0.1-0.2,0.4-0.4,0.7-0.9C59.7,52.9,59.4,53.3,59.1,53.6z M34.6,53.2C35,53.5,34.7,53.3,34.6,53.2L34.6,53.2z M35.2,53.8
			c-0.2-0.1-0.3-0.3-0.6-0.4C34.7,53.4,34.9,53.5,35.2,53.8z M35.2,53.6c0.2,0.1,0.3,0.2,0.4,0.3C35.6,53.9,35.6,53.9,35.2,53.6z
			 M34,52.8c0.3,0.2,0.5,0.4,0.7,0.6c-0.1-0.1-0.1-0.1-0.1-0.1C34.5,53.1,34.3,53,34,52.8z M62.1,48.1c0.2-0.8-0.3-0.3-0.9,0.3
			c0.5-1,0.9-2,1.3-3v-1.1l0,0c0,0,0,0,0,0v-0.8c-1.2,0-2.3,0-3.3,0c-0.6-0.2-1.2-0.4-1.1-0.6c-0.8,0.2-1.9,0.1-3.2-0.1l0.2,0
			l0.2-0.1l-0.5,0.1c-0.9-0.1-1.9-0.1-2.9,0.1l0.3-0.2c-0.2,0-0.4,0-0.7,0c0,0,0,0,0-0.1c-0.1,0-0.2,0.1-0.3,0.1
			c-0.8,0.1-1.7,0.2-2.4,0.3c-0.1,0-0.2,0-0.3,0l0.2-0.1c-1.1,0.1-2,0.3-3,0.8c-0.5,0.3-0.8,0.6-1.1,1c-0.3,0.4-0.5,0.7-0.7,1.1
			L43.3,47l1.5,0.1c1.1,0,2.3,0.1,3.7,0.1l-0.1,0l0.1,0c0.5,0,1,0,1.6,0.1l-0.3-0.2l0.2,0c0.8,0,1,0.1,1.5,0.1
			c0.6-0.2-0.3-0.2-1.1-0.2l0.4,0c0.8,0.1,2,0.1,3.1,0.1c0.2,0,0.3,0,0.5,0c-0.1,0-0.2,0.1-0.5,0.1c0.2,0,0.5-0.1,0.7-0.1
			c0.2,0,0.4,0,0.5,0c0.2,0,0.4,0,0.6,0c0.1,0,0.2,0,0.3,0l0.1,0c0.2,0,0.4,0.1,0.5,0.1c0,0-0.1,0-0.1,0c0,0,0.1,0,0.1,0
			c0,0,0,0.1,0,0.1c0.3,0,0.3-0.1,0.4-0.1c0,0,0,0,0,0c0.2,0,0.3-0.1,0.3,0c0.1,0-0.1,0-0.2,0c0,0,0,0,0,0c0,0,0.1,0,0.1,0
			c0,0,0.2-0.1,0.1,0.1l-0.1,0.1l0-0.1l-0.1,0.1L57,47.5c0,0,0.2,0.1,0.2,0.1c-0.1,0.3-0.3,0.5-0.4,0.6c-0.1,0.1-0.2,0.2-0.3,0.2
			c0.1-0.1,0.1-0.2,0.1-0.3c0,0,0-0.1,0.1-0.2l0,0c0,0,0,0.1-0.1,0.1c0,0,0,0,0,0c-0.1,0.1-0.2,0.3-0.3,0.4l-0.1,0.1l-0.1,0.3
			c-0.1,0.2-0.2,0.3-0.3,0.5c-0.1,0.2-0.2,0.3-0.3,0.5c0,0-0.1,0-0.1,0.1c-0.1,0.1-0.1,0.2-0.2,0.3c-0.1,0.2-0.3,0.4-0.3,0.5
			c0,0,0.1-0.2,0.3-0.4c0,0.1-0.1,0.1-0.1,0.2c0.1-0.1,0.1-0.2,0.2-0.4c0,0,0,0,0,0c0.1-0.1,0.2-0.3,0.3-0.4
			c0.1-0.1,0.1-0.2,0.1-0.2c-0.2,0.4-0.5,0.8-0.8,1.2c0-0.1,0.1-0.2,0.1-0.3c-0.2,0.4-0.5,0.7-0.8,1c0,0,0,0,0,0
			c-0.1,0.1-0.1,0.2-0.2,0.2c0.1-0.1,0.2-0.2,0.2-0.3c0-0.1,0.1-0.4-0.4,0.2c-0.3,0.4-0.7,0.9-1.2,1.3c0.3-0.2,0.6-0.5,0.8-0.7
			c0.1-0.1,0.2-0.2,0.2-0.2c-0.6,0.6-1.2,1.1-1.8,1.6c-0.1,0-0.1,0.1-0.2,0.1c0.4-0.3,0.7-0.6,1-0.8c-0.4,0.3-0.7,0.5-1,0.7
			c0,0,0,0,0.1,0l0,0v0c0.1,0,0.1,0,0,0c0,0,0,0,0,0c0,0,0,0.1,0,0.1c-0.6,0.4-0.1,0,0-0.1c0,0,0,0,0,0l0,0c0,0-0.1,0.1-0.3,0.2
			c-0.2,0.1-0.4,0.3-0.7,0.5c-0.3,0.2-0.5,0.3-0.7,0.4C50.1,55,50,55,50,55c0.5-0.2,1.1-0.5,2-1.2c0,0-0.1,0.1-0.1,0.1
			c0,0-0.1,0.1-0.1,0.1c-0.9,0.6-1.8,1.1-2.8,1.5c-0.4,0.2-0.8,0.3-1.2,0.5c-0.1,0-0.3,0-0.4,0c0,0,0,0.1-0.4,0.3
			c-0.3,0.1-0.6,0.2-0.9,0.2l0.1,0c0,0,0,0-0.1,0c0,0,0.1,0,0.1,0l0.1,0c-1.4,0.3-2,0.3-2.7,0.3c-0.6-0.1-1.3-0.1-2.9-0.3l0.1,0
			c-0.3,0-0.7-0.1-1.1-0.1c-0.3-0.1-0.7-0.2-1.1-0.3c0,0-0.1,0-0.1,0c1.3,0.3,2.9,0.3,4.4,0.5c-0.7-0.3-0.4,0.1-1.4-0.4
			c0.4,0.3-0.5,0.2-1.4-0.1c-0.9-0.2-1.7-0.5-1-0.1c-1-0.7-1.8-0.8-3-1.8c0,0.1,0.4,0.4-0.7-0.3c-0.1,0-0.2-0.1-0.3-0.1
			c0,0,0,0-0.1-0.1c0,0,0,0,0.1,0.1c-0.1,0-0.1,0,0,0c0.2,0.2,0.4,0.4,0.5,0.5c-0.3-0.1-1-0.4-1.5-0.8c-0.6-0.4-1.1-0.8-1.4-1
			c-0.1-0.1-0.1-0.1-0.1-0.1c0.1,0,0.2,0.1,0.4,0.2c-0.1-0.1-0.1-0.1-0.2-0.2c0,0,0,0,0-0.1c0,0-0.1-0.1-0.2-0.1
			c-0.3-0.4-0.6-0.7-0.9-1c-0.2-0.4-0.4-0.9,0.4,0c0,0-0.3-0.3-0.5-0.6c-0.1-0.2-0.2-0.3-0.3-0.4c-0.1-0.1-0.1-0.2-0.1-0.2
			c-0.5-0.8-1-2-1.4-2.7c-0.3-0.7-0.8-1.7-0.5-1.2c0,0-0.1-0.1-0.1-0.4c-0.1-0.2-0.2-0.5-0.3-0.8c-0.1-0.3-0.2-0.6-0.2-0.9
			c0-0.2-0.1-0.4-0.1-0.4l0,0c-0.1-1.3-0.3-2.6-0.1-3.9c0-0.1,0-0.1,0-0.2c0-0.2,0.1-0.4,0.1-0.6c0,0.1,0,0.2,0,0.3
			c0.1-0.4,0.2-0.7,0.3-1c0.1-0.3,0.2-0.6,0.2-0.8c-0.3,0.6-0.5,1.1-0.6,1.5c0-0.2,0-0.3,0.1-0.5c0.1-0.3,0.1-0.6,0.2-0.9
			c0,0,0,0.1,0.1,0.2c0-0.1,0-0.2,0-0.3c0.2-0.6,0.4-1.1,0.7-1.6c0.3-0.7,0.6-1.5,1.3-2.6c0,0.1-0.1,0.2-0.1,0.2
			c0.1-0.2,0.2-0.3,0.2-0.5l0.3-0.1c0.3-0.4,0.9-1.1,1.4-1.6c0.5-0.5,1-0.9,1.2-1.1c0.6-0.2,1.7-0.9,2.9-1.6
			c1.2-0.7,2.6-1.2,3.6-1.3l0-0.2c1.3-0.2,2.5-0.4,4.2-0.4l-0.1-0.2c0.3,0,0.5,0,0.5,0l-0.3,0.2c1.6,0,2.1,0.2,3.5,0.7
			c-0.1-0.1-0.1-0.1,0-0.2c0.4,0.2,0.8,0.3,1.2,0.5c0,0,0,0-0.1,0c0,0-0.1,0-0.1-0.1c0,0,0.1,0,0.1,0.1c-0.1,0-0.4,0-0.5,0
			c0.9,0.5,2.2,1.1,2.8,1.5c-0.2-0.1-0.5-0.3-0.6-0.4c0,0,0,0,0.1,0.1c0.6,0.3,1.1,0.6,1.7,1c0.3,0.2,0.5,0.3,0.8,0.5
			c-0.1,0-0.2-0.1-0.4-0.2c0.5,0.4,1,0.5,1.8,1c-0.3,0-0.3,0.3-1.5-0.4c0,0,0.7,0.4,1.3,0.7c0.4,0.2,0.8,0.4,1.1,0.5
			c0.4,0.2,0.7,0.3,0.7,0.3c0.1,0.1,0.8,0.6,1.3,1c0.3-0.4,0.5-0.6,0.3-0.3c0.7-1,1.6-2.3,2.4-3.6c-0.5-0.3-1-0.7-1.5-1
			c-0.1,0-0.1-0.1-0.2-0.1c-0.1-0.1-0.3-0.2-0.4-0.3c-0.5-0.5-0.6-0.5-0.6-0.4c0,0,0,0.1,0,0.1c0,0-0.1-0.1-0.1-0.1
			c-0.6-0.4-1.1-0.8-1.7-1.3c-0.1,0-0.3-0.1-0.7-0.4c-0.8-0.6-1.5-1.2-2.4-1.8c-0.4-0.3-0.9-0.5-1.4-0.8c-0.5-0.2-1.1-0.4-1.7-0.6
			c0,0-0.3-0.2-0.6-0.4c-0.3-0.2-0.6-0.4-0.6-0.4c-1.9-0.4,1.7,0.9-1.4,0.2c-2.3-0.3-0.8-0.4-1.6-0.6c-1.2,0-3.1,0.3-5.2,0.4
			c0.7-0.1,1.2-0.2,1.9-0.3c0,0-0.4,0-0.8,0c-0.4,0-0.8,0-0.8,0c0.9-0.3,1.8-0.4,2.2-0.5c0.4-0.1,0.4-0.1-0.4-0.2
			c-0.1,0.3-1.7,0.4-3.2,0.8c-1.5,0.4-3,0.9-3,1.2l-1,0.2c0.3-0.1,0.3-0.2,0.6-0.3c-2,0.5-1.2,1-3.5,2c-0.1,0-0.2,0.1-0.3,0.1
			c0,0-0.1,0-0.1,0c-0.1,0-0.1,0-0.2,0c-0.1,0-0.1-0.1,0-0.1c0,0-0.2,0.1-0.3,0.3c-0.2,0.3-0.3,0-0.3,0c-0.1-0.3,0-0.3,0.1-0.1
			c0,0-0.1-0.3-0.3-0.5c-0.3-0.6-0.6-1.2-0.6-1.2l0,0c-0.1-0.1-0.2-0.3-0.4-0.5c-0.1-0.3-0.2-0.5-0.3-0.8c0,0.1,0,0.2-0.1,0.2
			c-0.1-0.1-0.1-0.2-0.2-0.2c0-0.1-0.1-0.2-0.1-0.4c0.1,0.1,0.2,0.3,0.2,0.2l-0.2-0.4c-0.1-0.3-0.2-0.7-0.3-1
			c0.2,0.3,0.5,0.9,0.8,1.5c0-1.6-0.7-1.2-1.6-4.3l0.7,1.4c-0.1-1.1-0.7-2.1-1.1-3.8c0,0.4,0.7,2.8,0.2,2.2
			c-0.3-0.8-0.6-1.5-1.1-2.2c0,0,0.1-0.1,0-0.2c0.1,0.1,0.2,0.2,0.2,0.1c-0.1-0.1-0.2-0.4-0.3-0.6c0,0,0-0.1-0.1-0.1
			c0-0.1,0-0.1-0.1-0.2c0-0.3,0.2,0.3,0.4,0.6c-0.4-0.8-0.6-1.3-0.9-1.6l0.3,0c-0.6-1.1-0.7-1-1.1-1.6c-0.5-1.3-0.4-1.7-0.4-2
			c-0.8-2.1,0.3,1.6-0.8-0.8c-0.3-0.9-0.6-1.6-1-2.4c-0.5-1.1-1.1-2.2-1.8-3.6c-0.4-1-0.3-1-0.2-0.8c0.1,0.2,0.3,0.5,0.2,0.1
			c0,0-0.2-0.3-0.4-0.6c-0.2-0.3-0.4-0.6-0.4-0.6c-0.2-0.4-0.1-0.5-0.1-0.5C20.5,0.1,20.4,0,20.4,0c-0.2,0.7,0,0.7-0.7,2.4
			c0,0.1,0,0.1-0.1,0.2c0,0.1-0.1,0.2-0.1,0.3l0.1-0.2c-0.2,0.5-0.5,1.1-1,2.1c-0.3,0.5-0.7,1.4-0.9,1.8c-0.2,0.5-0.4,1-0.5,1.4
			C17,8.4,17.2,7.7,17,7.8c-0.8,2.5-0.7,2.1-1.2,4.2l-0.9,1.6c0.3-0.4,0.4-0.4,0.4-0.3c-0.2,0.5-0.5,1-0.6,1.4c0,0-0.1-0.1-0.1-0.1
			c0,0.2-0.1,0.4-0.2,0.8c0-0.2,0-0.3,0-0.2c-0.1,0.1-0.1,0.3-0.2,0.6c0,0-0.1,0.1-0.1,0.1l-0.4,0.3l0.1,0.2
			c-0.4,0.5-0.7,0.9-0.9,1.3c-0.1,0.2,0.1-0.4,0.2-0.7c-1.1,1.9-0.4,1.1-0.4,1.6l-0.3,0.5c0,0.1-0.1,0.2-0.1,0.3
			c-0.1,0-0.2-0.4-0.6,0.6c-0.4,0.6-1.1,4-2.2,5.6c0.2-0.2,0.4-0.5,0.4-0.3c-0.2,0.1-0.4,0.7-0.7,1.3c0.2-0.1,0.2,0,0.2,0.2
			c-0.7,1.3-1.6,2.9-1.7,4c-0.1,0.2-0.2,0.2-0.2,0.2C7,32,6.4,33.3,6.1,34.3c0,0,0,0,0-0.1l0.2-0.4c-0.3,0.6-0.6,1.4-1,2.2
			c-0.8,1.4-1.6,4.3-2.2,5.4C3.1,41.3,3,41.2,3,41.1l-0.1,0.7c-0.1,0.1-0.1,0.1-0.2,0.1l-0.4,1l0-0.5c-0.1,0.9-0.4,1.4-0.7,2
			l0.1-0.1l-0.3,0.7c0-0.2,0.1-0.3,0.2-0.6c-0.1,0.3-0.3,0.6-0.5,1c-0.1,0.2-0.2,0.4-0.3,0.7c-0.2,0.4-0.3,0.8-0.5,1.3
			c0-0.1,0.1-0.1,0.1-0.2c-0.2,0.5-0.3,0.9-0.4,1.3c0.2,0.1,0.4,0.2,0.6,0.2c0.4,0.3,1,0.6,2.2,1.2c-0.3-0.1-0.4-0.2-0.4-0.3
			c0.2,0.1,0.5,0.2,0.7,0.3l0.2,0.1c0,0,0.1-0.1,0.1-0.1c0.1-0.1,0.1-0.2,0.2-0.3c0.1-0.1,0.1-0.2,0.2-0.4c0,0.1,0,0.2-0.1,0.3
			c0,0,0.1-0.2,0.2-0.5c0.4-0.7,0.7-1.3,0.9-1.6C4.9,47.3,5,47,5.1,46.8c0.1-0.1,0.3-0.2,0.4-0.4c-0.2,0.2,1-2,1.3-2.6l-0.6,0.9
			c0.3-0.5,0.4-0.9,0.6-1.3C7.1,42.8,7.6,42,8.1,41c-0.4,1-0.7,1.5-0.2,1.2c0.9-1.7-0.1-0.5,0.8-2c0.1-0.4-0.6,1.1-0.6,0.8
			c0.5-1,1.1-2.2,1.4-3.3c0,0,0,0.1,0,0.1c0.1-0.1,0.1-0.2,0.1-0.2c0,0,0,0.1,0,0.1c0-0.1,0.1-0.1,0.1-0.2c0.3-0.5,0.2-0.1,0.7-1.4
			c0.4-0.5-0.1,0.9-0.3,1.3l1.5-3.4c-0.2,0,0.1-0.8,0.3-1.5c0.6-1.3,1.1-2.5,1.3-3.3c0.5-1.2,0.5-2.2,1.4-3.7
			c0.2-0.6,1.1-1.5,0.9-1.7c-0.2,0.3-0.5,0.4-0.8,0.4c0.4-1,0.9-2.2,1.1-2.1c0.1-0.3,0.2-0.6,0.4-0.8c0,0,0,0,0.1-0.1c0,0,0,0,0-0.1
			c0.1-0.3,0.3-0.7,0.4-1c0.1-0.1,0.2-0.2,0.3-0.7c0,0,0,0,0-0.1c0.5-1.1,1-2.2,1.5-3.3c0.2-0.5,0.5-1,0.7-1.5l0.4-0.7l0.2-0.4
			c0.2-0.4,0.5-0.9,0.7-1.3c0.1,0.4,0.3,0.7,0.4,1.1c0.2,0.4,0.3,0.8,0.5,1.3c0,0,0-0.2,0-0.4c0-0.2,0-0.4,0-0.3l0.5,1.3
			c0,0,0,0.1,0,0.2c0,0,0,0,0.1,0.1l0.1,0.3c0.1,0.5,0,0.8-0.5-0.6c0.1,0.8,1.1,2.1,1.1,2.2c0.9,2.6-0.8-0.9-0.5-0.1l0.5,1.1
			l-0.1-0.3c0.5,0.8,0.7,0.8,1.3,2.4c0.4,1,0,0.6,0.2,1c0,0,0,0.1,0.3,0.6l1,2.3l-0.2-1c0.6,1,1,2.2,0.8,1c0.1,0.9,1.3,2.9,1.1,4.9
			c-0.1,2-1.3,3.8-1.6,4.3c-0.5,1.5-1.1,3-1.5,5c0.2-0.5,0.5-0.7,0.2,0.9c-0.3-0.4-0.5,0.4-0.6,1.4c-0.1,1-0.1,2.3-0.2,3
			c0.1-0.6,0.2,0.6,0.5,1.7c0.3,1.1,0.7,2.1,0.6,1.1c0.4,1.4-0.2,0.2,0,1.2c1.4,3.1,3.4,6.7,6.8,9.4c0.1,0-0.4-0.6,0.4-0.1
			c0,0,0.1,0.1,0.2,0.3c0.1,0.2,0.3,0.4,0.5,0.6c0.2,0.2,0.4,0.4,0.6,0.5c0.2,0.1,0.3,0.2,0.3,0.2c0.8,0.4,0.9,0,2.1,0.9
			c-0.2-0.1-0.4-0.4,0.1-0.2c1.9,0.9,3.9,1.4,6,1.5c2.1,0.1,4.2-0.1,6.2-0.6c2.1-0.5,4-1.2,5.9-2.3c1.8-1.1,3.5-2.4,4.9-4
			c-0.9,0.8-0.4,0.2,0.2-0.5c-0.4,0.4-0.2-0.1-0.3-0.1c0,0,0.6-0.6,1.1-1.3c0.3-0.3,0.5-0.7,0.7-0.9c0.2-0.3,0.3-0.4,0.3-0.4
			c0-0.4,0.5-1.2,0.9-2c0.4-0.8,0.7-1.6,0.7-1.8L62.1,48.1z M49.8,47.1L49.8,47.1C49.8,47.1,49.8,47.1,49.8,47.1L49.8,47.1z
			 M50.5,47l-0.4,0c-0.5,0-0.8-0.1-0.4-0.2c0.2,0.1,0.5,0.1,0.9,0.2L50.5,47z M51.4,43c-0.1,0-0.1,0-0.1,0
			C51.3,42.9,51.4,42.9,51.4,43L51.4,43C51.4,43,51.4,43,51.4,43z M50.4,28c-0.1,0-0.3-0.1-0.4-0.2c-0.1-0.1-0.2-0.1-0.4-0.2
			C49.9,27.8,50.1,27.9,50.4,28z M10.9,35.2c-0.1,0-0.1-0.1-0.1-0.2c0.2-0.4,0.4-0.9,0.6-1.3L10.9,35.2z M13.3,28.7
			c0-0.1,0-0.1,0-0.2c0-0.1,0.1-0.2,0.1-0.2L13.3,28.7z M14.7,14.9c0-0.1,0-0.1,0-0.2l0.3-0.5C14.9,14.5,14.8,14.7,14.7,14.9z
			 M24.5,21.5l-0.1-0.4C24.8,21.9,24.7,21.7,24.5,21.5z M28.6,18.7C28.6,18.7,28.6,18.7,28.6,18.7c-0.2-0.4-0.3-0.7-0.5-1
			C28.4,18,28.6,18.5,28.6,18.7z M30.1,48.9C30.1,48.9,30.1,48.9,30.1,48.9c-0.3-0.4-0.4-0.8-0.5-1.2C29.7,48.1,29.9,48.4,30.1,48.9
			z M30.1,49.2c0.1,0.4-0.1,0.1-0.5-0.3c-0.3-0.5-0.7-1.2-0.9-1.7c-0.2-0.5-0.2-0.9-0.2-1.5c0.1,0.2,0.2,0.3,0.3,0.5
			c0.1,0.3,0.3,0.5,0.4,0.8c-0.1,0.1,0.1,0.5,0.3,1.1C29.8,48.8,30.4,49.6,30.1,49.2z M30.4,48.8c-0.1-0.2-0.1-0.3-0.2-0.4
			C30.3,48.5,30.3,48.7,30.4,48.8C30.4,48.8,30.4,48.8,30.4,48.8z M34.8,54.4l-0.1-0.2c0.3,0.2,0.7,0.3,1,0.5
			C35.5,54.6,35.2,54.5,34.8,54.4z M39.7,55.6c0,0-0.8-0.2-1.1-0.3c0.5,0.2,0.7,0.3,0.9,0.4C39.6,55.7,39.4,55.5,39.7,55.6z
			 M33.1,52.2c0.3,0.3,0.4,0,0.5,0.2c0.2,0.1-0.3-0.3-0.7-0.6C32.5,51.5,32.3,51.4,33.1,52.2z M62.3,48.9c0,0,0.2-0.3,0.3-0.5
			c0.2-0.3,0.3-0.5,0.3-0.5l-0.5,0.7L62.3,48.9z M63.4,46.4l0-0.8c-0.1,0.3-0.3,0.8-0.4,0.9L63.4,46.4z"/>
	</g>
</g>
</svg>
