<?xml version="1.0" encoding="utf-8"?>
<!-- Generator: Adobe Illustrator 18.1.1, SVG Export Plug-In . SVG Version: 6.00 Build 0)  -->
<!DOCTYPE svg PUBLIC "-//W3C//DTD SVG 1.1//EN" "http://www.w3.org/Graphics/SVG/1.1/DTD/svg11.dtd">
<svg version="1.1" id="Layer_1" xmlns="http://www.w3.org/2000/svg" xmlns:xlink="http://www.w3.org/1999/xlink" x="0px" y="0px"
	 viewBox="0 0 85 15" enable-background="new 0 0 85 15" xml:space="preserve">
<g>
	<g>
		<path fill="#B0976D" d="M9.7,6.7c0.7-0.3,1.2-0.7,1.5-1.2c0.3-0.5,0.5-1.1,0.5-1.9c0-0.7-0.1-1.3-0.3-1.7c-0.2-0.5-0.6-0.8-1-1.1
			C10,0.5,9.5,0.3,9,0.2C8.4,0.1,7.7,0,7,0H0v14.7h7.2c0.7,0,1.3-0.1,1.9-0.2c0.6-0.2,1.2-0.4,1.7-0.8c0.5-0.3,0.9-0.8,1.2-1.3
			c0.3-0.5,0.4-1.2,0.4-1.9c0-0.9-0.2-1.7-0.7-2.4C11.3,7.4,10.7,7,9.7,6.7z M3.3,2.5h3.1c0.3,0,0.6,0,0.8,0.1
			c0.3,0,0.5,0.1,0.7,0.3C8.1,3,8.3,3.1,8.4,3.4c0.1,0.2,0.2,0.5,0.2,0.8c0,0.6-0.2,1.1-0.6,1.3C7.6,5.8,7.2,6,6.6,6H3.3V2.5z
			 M9,11.2c-0.1,0.2-0.3,0.4-0.5,0.6C8.2,12,8,12.1,7.7,12.1c-0.3,0.1-0.6,0.1-0.9,0.1H3.3V8.2h3.6c0.7,0,1.3,0.2,1.7,0.5
			C9,9,9.2,9.5,9.2,10.3C9.2,10.7,9.1,11,9,11.2z M24.5,7.7c-0.2-0.8-0.5-1.4-0.9-2c-0.4-0.6-1-1.1-1.7-1.4
			c-0.7-0.4-1.5-0.5-2.4-0.5c-0.8,0-1.6,0.1-2.2,0.4c-0.7,0.3-1.3,0.7-1.7,1.2c-0.5,0.5-0.9,1.1-1.1,1.8C14.1,7.9,14,8.6,14,9.4
			c0,0.8,0.1,1.6,0.4,2.3c0.3,0.7,0.6,1.3,1.1,1.8c0.5,0.5,1.1,0.9,1.7,1.1c0.7,0.3,1.4,0.4,2.3,0.4c1.2,0,2.3-0.3,3.1-0.8
			c0.9-0.6,1.5-1.5,1.9-2.8h-2.6c-0.1,0.3-0.4,0.6-0.8,0.9c-0.4,0.3-0.9,0.4-1.5,0.4c-0.8,0-1.5-0.2-1.9-0.6
			C17.2,11.8,17,11,17,10.1h7.8C24.8,9.3,24.7,8.5,24.5,7.7z M17,8.3c0-0.2,0.1-0.4,0.1-0.7c0.1-0.3,0.2-0.5,0.4-0.8
			c0.2-0.2,0.4-0.4,0.7-0.6C18.5,6.1,18.9,6,19.4,6c0.7,0,1.3,0.2,1.7,0.6c0.4,0.4,0.6,0.9,0.7,1.7H17z M35.9,5
			c-0.3-0.4-0.7-0.7-1.2-0.9c-0.5-0.2-1.2-0.3-1.9-0.3c-0.6,0-1.1,0.1-1.7,0.4c-0.6,0.3-1.1,0.7-1.4,1.3h-0.1V0h-3v14.7h3V9.1
			c0-1.1,0.2-1.9,0.5-2.3c0.4-0.5,0.9-0.7,1.7-0.7c0.7,0,1.2,0.2,1.5,0.6c0.3,0.4,0.4,1.1,0.4,2v6h3V8.2c0-0.7-0.1-1.3-0.2-1.8
			C36.4,5.8,36.2,5.4,35.9,5z M48.6,12.4V6.8c0-0.7-0.1-1.2-0.4-1.6c-0.3-0.4-0.7-0.7-1.1-0.9c-0.5-0.2-1-0.4-1.5-0.4
			c-0.6-0.1-1.1-0.1-1.6-0.1c-0.6,0-1.2,0.1-1.8,0.2c-0.6,0.1-1.1,0.3-1.6,0.6c-0.5,0.3-0.9,0.6-1.2,1.1c-0.3,0.5-0.5,1-0.5,1.7h3
			c0.1-0.6,0.3-1,0.6-1.2c0.3-0.2,0.8-0.4,1.4-0.4c0.3,0,0.5,0,0.7,0.1c0.2,0,0.4,0.1,0.6,0.2c0.2,0.1,0.3,0.2,0.4,0.4
			c0.1,0.2,0.2,0.4,0.2,0.8c0,0.3-0.1,0.5-0.3,0.7c-0.2,0.2-0.5,0.3-0.8,0.4c-0.3,0.1-0.7,0.1-1.1,0.2c-0.4,0-0.9,0.1-1.3,0.2
			c-0.4,0.1-0.9,0.2-1.3,0.3C40.4,9,40,9.2,39.6,9.4c-0.3,0.2-0.6,0.5-0.8,0.9c-0.2,0.4-0.3,0.9-0.3,1.5c0,0.6,0.1,1,0.3,1.4
			c0.2,0.4,0.4,0.7,0.8,1c0.3,0.3,0.7,0.5,1.2,0.6c0.4,0.1,0.9,0.2,1.4,0.2c0.7,0,1.3-0.1,2-0.3c0.6-0.2,1.2-0.5,1.7-1
			c0,0.2,0,0.4,0.1,0.5c0,0.2,0.1,0.4,0.2,0.5l3,0c-0.1-0.2-0.3-0.6-0.4-1C48.6,13.3,48.6,12.9,48.6,12.4z M45.6,10.6
			c0,0.2,0,0.4-0.1,0.7c0,0.3-0.1,0.5-0.3,0.8c-0.2,0.3-0.4,0.5-0.7,0.7c-0.3,0.2-0.8,0.3-1.3,0.3c-0.2,0-0.5,0-0.7-0.1
			c-0.2,0-0.4-0.1-0.6-0.2c-0.2-0.1-0.3-0.2-0.4-0.4c-0.1-0.2-0.1-0.4-0.1-0.7c0-0.3,0.1-0.5,0.1-0.7c0.1-0.2,0.2-0.3,0.4-0.4
			c0.2-0.1,0.3-0.2,0.6-0.3c0.2-0.1,0.4-0.1,0.7-0.2c0.2,0,0.5-0.1,0.7-0.1c0.2,0,0.5-0.1,0.7-0.1c0.2,0,0.4-0.1,0.6-0.2
			c0.2-0.1,0.3-0.1,0.5-0.3V10.6z M60,5c-0.3-0.4-0.7-0.7-1.2-0.9c-0.5-0.2-1.2-0.3-1.9-0.3c-0.6,0-1.2,0.1-1.8,0.4
			c-0.6,0.3-1.1,0.7-1.5,1.3h-0.1V4.1h-2.8v10.7h2.9V9.1c0-1.1,0.2-1.9,0.5-2.3C54.5,6.3,55.1,6,55.9,6c0.7,0,1.2,0.3,1.5,0.7
			c0.3,0.4,0.4,1.1,0.4,2v6h3V8.2c0-0.7-0.1-1.3-0.2-1.8C60.5,5.8,60.3,5.4,60,5z M69.3,12.2c-0.4,0.4-0.9,0.6-1.6,0.6
			c-0.5,0-0.8-0.1-1.2-0.3c-0.3-0.2-0.6-0.5-0.8-0.8c-0.2-0.3-0.3-0.7-0.4-1.1c-0.1-0.4-0.1-0.8-0.1-1.2c0-0.4,0-0.8,0.1-1.2
			c0.1-0.4,0.2-0.8,0.4-1.1c0.2-0.3,0.5-0.6,0.8-0.8C66.9,6.1,67.3,6,67.7,6c1.3,0,2,0.6,2.2,1.8h2.9c0-0.7-0.2-1.3-0.5-1.8
			c-0.3-0.5-0.7-0.9-1.1-1.3c-0.5-0.3-1-0.6-1.6-0.8c-0.6-0.2-1.2-0.2-1.8-0.2c-0.9,0-1.7,0.1-2.3,0.4c-0.7,0.3-1.3,0.7-1.7,1.2
			c-0.5,0.5-0.8,1.1-1.1,1.8c-0.2,0.7-0.4,1.5-0.4,2.3c0,0.8,0.1,1.5,0.4,2.2c0.3,0.7,0.6,1.2,1.1,1.7c0.5,0.5,1,0.9,1.7,1.1
			c0.7,0.3,1.4,0.4,2.2,0.4c1.4,0,2.6-0.4,3.5-1.1c0.9-0.7,1.5-1.8,1.7-3.2H70C69.9,11.3,69.7,11.8,69.3,12.2z M22.4,0.8h-6v1.5h6
			V0.8z M81.4,12.4c-0.4,0.3-0.9,0.4-1.5,0.4c-0.8,0-1.5-0.2-1.9-0.6c-0.4-0.4-0.7-1.2-0.7-2.1h7.8c0.1-0.8,0-1.6-0.2-2.4
			c-0.2-0.8-0.5-1.4-0.9-2c-0.4-0.6-1-1.1-1.7-1.4c-0.7-0.4-1.5-0.5-2.4-0.5c-0.8,0-1.6,0.1-2.2,0.4c-0.7,0.3-1.2,0.7-1.7,1.2
			c-0.5,0.5-0.9,1.1-1.1,1.8c-0.3,0.7-0.4,1.4-0.4,2.2c0,0.8,0.1,1.6,0.4,2.3c0.3,0.7,0.6,1.3,1.1,1.8c0.5,0.5,1.1,0.9,1.7,1.1
			c0.7,0.3,1.4,0.4,2.3,0.4c1.2,0,2.3-0.3,3.1-0.8c0.9-0.6,1.5-1.5,1.9-2.8h-2.6C82.1,11.8,81.8,12.1,81.4,12.4z M77.3,7.6
			c0.1-0.3,0.2-0.5,0.4-0.8c0.2-0.2,0.5-0.4,0.8-0.6C78.8,6.1,79.2,6,79.6,6c0.7,0,1.3,0.2,1.7,0.6C81.7,7,81.9,7.5,82,8.3h-4.8
			C77.2,8.1,77.2,7.8,77.3,7.6z"/>
	</g>
</g>
</svg>
