<?xml version="1.0" encoding="utf-8"?>
<!-- Generator: Adobe Illustrator 19.1.0, SVG Export Plug-In . SVG Version: 6.00 Build 0)  -->
<svg version="1.1" id="Layer_1" xmlns="http://www.w3.org/2000/svg" xmlns:xlink="http://www.w3.org/1999/xlink" x="0px" y="0px"
	 viewBox="0 0 149.9 149.9" style="enable-background:new 0 0 149.9 149.9;" xml:space="preserve">
<style type="text/css">
	.st0{fill:#00A65D;}
</style>
<path class="st0" d="M82,141.6c-0.8,0.1-1.6-0.2-2.2-0.7c-0.6-0.5-0.9-1.3-0.9-2.1v-17.3c0-1.2,0.8-2.4,2.1-2.7l24.6-6.6
	c2.1-0.6,3.4-2.7,2.8-4.8c-0.6-2.1-2.7-3.4-4.8-2.8l-21.1,5.6c-0.8,0.2-1.7,0-2.4-0.5c-0.7-0.5-1.1-1.3-1.1-2.2v-6.8
	c0-1.3,0.8-2.3,2-2.7l32.5-9c2.1-0.6,3.3-2.8,2.8-4.9c-0.6-2.1-2.8-3.3-4.9-2.8l-28.9,8c-0.8,0.2-1.7,0.1-2.4-0.5
	c-0.7-0.5-1.1-1.4-1.1-2.2v-6.7c0-1.3,0.8-2.4,2.1-2.7l24.6-6.6c2.1-0.6,3.4-2.7,2.8-4.9c-0.6-2.1-2.7-3.4-4.8-2.8l-21.1,5.6
	c-0.8,0.2-1.7,0-2.4-0.5c-0.7-0.5-1.1-1.3-1.1-2.2v-6.7c0-1.3,0.8-2.4,2.1-2.7l15.7-4.2c2.1-0.6,3.4-2.7,2.8-4.8
	c-0.6-2.1-2.7-3.4-4.8-2.8l-12.3,3.2c-0.8,0.2-1.7,0-2.4-0.5c-0.7-0.5-1.1-1.3-1.1-2.2V28.6c0-2.2-1.8-4-4-4c-2.2,0-4,1.8-4,4v16.8
	c0,0.9-0.4,1.7-1.1,2.2c-0.7,0.5-1.6,0.7-2.4,0.5l-12.3-3.2c-2.1-0.6-4.3,0.7-4.8,2.8c-0.6,2.1,0.7,4.3,2.8,4.8l15.7,4.2
	c1.2,0.3,2.1,1.4,2.1,2.7v6.7c0,0.9-0.4,1.7-1.1,2.2c-0.7,0.5-1.6,0.7-2.4,0.5l-21.1-5.6c-2.1-0.6-4.3,0.7-4.8,2.8
	c-0.6,2.1,0.7,4.3,2.8,4.9l24.6,6.6c1.2,0.3,2.1,1.4,2.1,2.7v6.7c0,0.9-0.4,1.7-1.1,2.2c-0.7,0.5-1.6,0.7-2.4,0.5l-28.9-8
	c-2.1-0.6-4.3,0.7-4.9,2.8c-0.6,2.1,0.6,4.3,2.8,4.9l32.5,9c1.2,0.3,2,1.4,2,2.7v6.8c0,0.9-0.4,1.7-1.1,2.2
	c-0.7,0.5-1.6,0.7-2.4,0.5l-21.1-5.6c-2.1-0.6-4.3,0.7-4.8,2.8c-0.6,2.1,0.7,4.3,2.8,4.8l24.6,6.6c1.2,0.3,2.1,1.4,2.1,2.7v17.3
	c0,0.8-0.3,1.5-0.9,2.1c-0.6,0.5-1.4,0.8-2.1,0.7c-33.7-3.5-60-32.1-60-66.7c0-37,30.1-67,67.1-67c37,0,67,30.1,67,67
	C142,109.5,115.7,138.1,82,141.6 M75,0C33.6,0,0,33.6,0,75c0,41.3,33.6,75,75,75c41.3,0,75-33.6,75-75C149.9,33.6,116.3,0,75,0"/>
</svg>
