<?xml version="1.0" encoding="utf-8"?>
<!-- Generator: Adobe Illustrator 18.1.1, SVG Export Plug-In . SVG Version: 6.00 Build 0)  -->
<!DOCTYPE svg PUBLIC "-//W3C//DTD SVG 1.1//EN" "http://www.w3.org/Graphics/SVG/1.1/DTD/svg11.dtd">
<svg version="1.1" id="Layer_1" xmlns="http://www.w3.org/2000/svg" xmlns:xlink="http://www.w3.org/1999/xlink" x="0px" y="0px"
	 viewBox="0 0 65 74" enable-background="new 0 0 65 74" xml:space="preserve">
<path d="M64.9,19.9c0-1.1-0.6-2.1-1.5-2.6L33.9,0.4c-0.9-0.5-2.1-0.5-3,0L1.5,17.5C0.6,18,0,19,0,20.1l0.1,34c0,1.1,0.6,2.1,1.5,2.6
	l29.5,16.9c0.5,0.3,1,0.4,1.5,0.4c0.5,0,1.1-0.1,1.5-0.4l29.4-17.1C64.4,56,65,55,65,53.9L64.9,19.9z M48.2,49
	c0,0.8-0.7,1.5-1.5,1.5c-0.8,0-1.5-0.7-1.5-1.5V30.6l-12.3,7.2c-0.5,0.3-1,0.3-1.5,0l-12.3-7.2V49c0,0.8-0.7,1.5-1.5,1.5
	c-0.8,0-1.5-0.7-1.5-1.5v-21c0-0.5,0.3-1,0.8-1.3c0.5-0.3,1-0.3,1.5,0l13.8,8l13.8-8c0.5-0.3,1-0.3,1.5,0c0.5,0.3,0.8,0.8,0.8,1.3
	V49z"/>
</svg>
