<?xml version="1.0" encoding="utf-8"?>
<!-- Generator: Adobe Illustrator 18.1.1, SVG Export Plug-In . SVG Version: 6.00 Build 0)  -->
<!DOCTYPE svg PUBLIC "-//W3C//DTD SVG 1.1//EN" "http://www.w3.org/Graphics/SVG/1.1/DTD/svg11.dtd">
<svg version="1.1" id="Layer_1" xmlns="http://www.w3.org/2000/svg" xmlns:xlink="http://www.w3.org/1999/xlink" x="0px" y="0px"
	 viewBox="0 0 146 36" enable-background="new 0 0 146 36" xml:space="preserve">
<path fill-rule="evenodd" clip-rule="evenodd" fill="#B0976D" d="M145.8,28.4c-6.1,10.4-15.8,7.4-18.7,5c-1.2,0.8-3.4,2.7-6.3,2.5
	c-6.1-0.5-8.4-9.3-8.4-9.3c0,0-1.8,0.7-2.8,0.6c0,2.6-2.2,8.8-8.3,8.7c-6.7-0.1-8.1-10.2-8.1-10.2s-0.7,0.9-3.2,1.9
	c0.1-2,0,8.1-8.1,8.2c-6.4,0.1-8.1-10.2-8.1-10.2s-1.1,1.2-3.3,1.6c0.1-2-0.1,8.7-8.2,8.7c-5.5,0-7.3-6.4-7.2-7.3
	c0.2-1.1-1.8,7.4-7.2,7.3c-2.2-0.1-3.8-1.7-4.8-3.8c-1.4,1.6-3.4,3.8-5.6,3.8c-4,0-5.8-3.4-5.5-13.1c0-1.1-0.1-1.6-1.2-1.8
	c-0.7-0.1-1.4-0.3-2.1-0.4c-0.2,0.8-2.2,15-9.1,15.3c-2.3,0.1-3.6-1.9-4.6-3.4c-1.6,2.1-3.7,3.5-6.7,3.5c-5.1,0-8.5-4.1-8.5-9.2
	c0-5.1,3.4-9.2,8.5-9.2c0.9,0,1.1,0.1,2,0.4C8.8,2.5,12.7,0.1,16.2,0.1c3.3,0,9,7.8,1,27.6c1.8,5.9,5.6,5.6,7.4-6.6
	c0.4-2.5-0.6-5.8,0.9-6.3c2.8-0.8,3.1,1.7,4.5,2.1c1.4,0.4,2.2,0.4,3.6,0.7c2.3,0.5,3.2,1.7,2.9,4.5c-0.3,3.5-0.9,8.7,0.9,9.3
	c1.3,0.5,3.7-2.3,4.1-3.8c0.4-1.5,0.5-2,0.5-3.1c0.1-2.3,0.1-4.1,0.5-5.8c0.2-0.7,0.4-1.1,1.1-1.2c0.6,0,1.8-0.2,2.3,0.2
	c0.7,0.5,0.6,1,0.5,2.4c-0.8,19.6,5.3,9.8,7.1,2C53,13.3,53.5,0.2,59,0c2.9-0.1,4.1,2.2,4.3,3.9c0.4,4.9-1.8,12.9-4.7,18.4
	c-1.7,11.1,7.2,13.3,8.7,4.4c-2.3-1.1-4.8-5.6-2.8-7.8c1.1-1.2,5.9,0.5,6,4.4c2.3-0.6,2.7-2,2.7-1.7C72.4,12.7,73,0.2,78.5,0
	c2.9-0.1,4.1,2.2,4.3,3.9c0.4,4.9-1.8,12.9-4.7,18.4c-1.7,11.1,7.2,13.3,8.7,4.4c-1.7-0.3-5.4-5.1-3.3-7.8c1.1-1.4,5.9,1.6,6.4,4.5
	c2.3-0.6,2.6-1.9,2.6-1.7c-0.6-8.8,0-21.3,5.4-21.5c2.9-0.1,4.1,2.2,4.3,3.9c0.4,4.9-1.8,12.9-4.7,18.4c-1.7,11.1,7.2,13.3,8.7,4.4
	c-2.4-0.4-5.7-5.5-3-8.1c1.1-1,5.2,1.7,6.2,4.7c1.3-0.1,2.2-0.5,2.4-0.6c-2.1-10.4-0.5-22.8,5.4-23c3.2-0.1,6.3,1.7,4.9,11.6
	c-1.3,9.4-6,13.4-6,13.4c0.3,1.1,2.7,10.6,8.8,5.6c-0.3-0.7-0.6-1.5-0.8-2.3c-1-5.2,1-11,6.3-12c3.1-0.5,6,1,6.4,4.4
	c0.8,5.6-4.2,9.6-6.1,10.5c-0.9-0.5,7.7,5.1,12.8-6.1c0.3-0.6,0.7-0.6,1.1-0.3C144.8,25.2,146.6,26.9,145.8,28.4z M12.2,25.4
	c-0.3-0.8-0.8-2.5-1-3.2c-1-0.9-1.8-1.1-3.1-1.1c-2.9,0-4.7,2.8-4.7,5.7s1.9,5.7,4.8,5.7c2.6,0,4.5-1.8,5.1-4.2
	C12.9,27.3,12.5,26.4,12.2,25.4z M16.1,4.1c-2.1,0-2.8,5-2.6,9.2c0.1,3.8,1.2,7.1,1.7,8.6c0.1,0.2,0.1,0.1,0.2,0.3
	C19,14.3,17.5,4.1,16.1,4.1z M59.3,4.3c-2.7-0.3-2.7,10.9-2.3,13.5C58.3,15.5,60.7,4.9,59.3,4.3z M78.8,4.3
	c-2.7-0.3-2.7,10.9-2.3,13.5C77.9,15.5,80.3,4.9,78.8,4.3z M98.2,4.5c-2.7-0.3-2.7,10.9-2.3,13.5C97.3,15.7,99.7,5.1,98.2,4.5z
	 M117.3,3.6c-4.2,0.8-3.2,14.9-2.6,17.3C119.6,14.2,119.7,3.4,117.3,3.6z M132.9,21.2c-0.2-0.9-1.3-1.4-2-1.3
	c-2.1,0.3-4.1,2.9-3.3,6.9c0.2,0.9,0.6,1.7,0.6,1.7C132.9,25.4,133.3,22.9,132.9,21.2z M44.6,14.5c-1.7,0-3-1.4-3-3.1
	c0-1.7,1.4-3.1,3-3.1c1.7,0,3,1.4,3,3.1C47.6,13.1,46.3,14.5,44.6,14.5z"/>
</svg>
