<?xml version="1.0" encoding="utf-8"?>
<!-- Generator: Adobe Illustrator 19.2.1, SVG Export Plug-In . SVG Version: 6.00 Build 0)  -->
<svg version="1.1" id="Layer_1" xmlns="http://www.w3.org/2000/svg" xmlns:xlink="http://www.w3.org/1999/xlink" x="0px" y="0px"
	 viewBox="0 0 118 67" style="enable-background:new 0 0 118 67;" xml:space="preserve">
<g>
	<path class="st0" d="M87.7,38.7c-0.6-3-1.8-5.4-3.5-7.7c-3.5-4.6-9.2-7.5-16.9-7.5c-11.9,0-19.3,8-21.5,16.5c-2-6-7.2-10-12.7-11.7
		c4.2-3,6.3-7.3,6.3-12.2c0-4.5-1.9-8.7-5.1-11.4c-4.7-4-11.1-4.8-19-4.8C9.4,0,7.1,0,0,0v65.9c4.4,0,8.9,0,13.2,0
		c3.9,0,7.7,0,11.2-0.1c11.2-0.4,18.9-6,21.4-14.4c0.8,3.7,2.5,6.8,4.6,9.1C54.7,65.1,61,67,67.3,67c7.8,0,13.4-2.2,17.2-5.7
		L79,54.9c-2.8,2.1-6.3,3.3-10.3,3.3c-7.8,0-11.3-4.9-11.6-9.6h30.5v17.4h11.4V0.3H87.7V38.7z M11.8,8.9l3.2,0c3.1,0,5.5,0.3,7.2,1
		c3.4,1.3,5.1,4,5.1,7.4c0,2.9-1.1,7.4-7.2,8.6c-1,0.2-2.5,0.3-4.6,0.3c-2.9,0-3.8,0-3.8,0V8.9z M24.7,56.3
		c-1.4,0.3-3.2,0.3-4.6,0.3c-4.3,0-8.3,0-8.3,0l0-21.5c0,0,4.4,0,7.5,0c2.4,0,5,0.3,6.5,0.7c5.2,1.4,8.2,5.1,8.2,10
		C34,50.8,31.2,55.1,24.7,56.3z M57.4,40.4c1-4.8,4.6-8.3,9.9-8.3c5.3,0,8.8,3.1,9.7,8.3H57.4z M106.8,0.3v65.6H118V0.3H106.8z"/>
</g>
</svg>
