<?xml version="1.0" encoding="utf-8"?>
<!-- Generator: Adobe Illustrator 19.2.1, SVG Export Plug-In . SVG Version: 6.00 Build 0)  -->
<svg version="1.1" id="Layer_1" xmlns="http://www.w3.org/2000/svg" xmlns:xlink="http://www.w3.org/1999/xlink" x="0px" y="0px"
	 viewBox="0 0 275 49" style="enable-background:new 0 0 275 49;" xml:space="preserve">
<style type="text/css">
	.st0{fill:none;}
</style>
<g>
	<path class="st0" d="M74.6,13.9c-5.2,0-8.6,2.9-10.9,6.3V4.7c0-1.2-0.9-2.1-2.2-2.1c-1.2,0-2.1,0.9-2.1,2.1V41
		c0,1.2,0.9,2.1,2.2,2.1c1.2,0,2.1-1,2.1-2.1v-3.6c2.2,3.2,5.6,6,10.9,6c6.9,0,13.6-5.5,13.6-14.8v-0.1
		C88.2,19.3,81.4,13.9,74.6,13.9z M83.9,28.7c0,6.9-4.5,10.9-10,10.9c-5.3,0-10.3-4.4-10.3-11v-0.1c0-6.5,5-10.9,10.3-10.9
		c5.4,0,10,4.3,10,11V28.7z M108.5,14.1c-3.6,0-7.7,2.9-9.8,7.6v-5.3c0-1.2-0.9-2.1-2.2-2.1c-1.2,0-2.1,1-2.1,2.1V41
		c0,1.2,0.9,2.1,2.2,2.1c1.2,0,2.1-1,2.1-2.1v-9.7c0-8.2,4.5-12.3,10-13c1.1-0.2,1.9-1,1.9-2.1C110.6,15,109.7,14.1,108.5,14.1z
		 M209.5,13.9c-4.9,0-7.9,2.5-9.8,5.5V4.7c0-1.2-0.9-2.1-2.2-2.1c-1.2,0-2.1,1-2.1,2.1V41c0,1.2,0.9,2.1,2.2,2.1
		c1.2,0,2.1-0.9,2.1-2.1V26.6c0-5.3,3.6-8.9,8.5-8.9c5,0,7.9,3.3,7.9,8.6V41c0,1.2,0.9,2.1,2.2,2.1c1.2,0,2.1-0.9,2.1-2.1V25.2
		C220.4,18.5,216.4,13.9,209.5,13.9z M272.9,14.1c-3.6,0-7.7,2.9-9.8,7.6v-5.3c0-1.2-0.9-2.1-2.2-2.1c-1.2,0-2.1,1-2.1,2.1V41
		c0,1.2,0.9,2.1,2.2,2.1c1.2,0,2.1-1,2.1-2.1v-9.7c0-8.2,4.5-12.3,10-13c1.1-0.2,1.9-1,1.9-2.1C275,15,274.2,14.1,272.9,14.1z
		 M155.6,14.1c-3.6,0-6.5,0.7-9.3,1.9c-0.6,0.2-1.2,0.9-1.2,1.8c0,1,0.9,1.8,1.9,1.8c0.2,0,0.5-0.1,0.8-0.2c2.1-0.9,4.5-1.6,7.4-1.6
		c5.3,0,8.5,2.6,8.5,7.7v1c-2.5-0.7-5.1-1.2-8.8-1.2c-7.2,0-12.2,3.2-12.2,9.2v0.1c0,5.8,5.4,8.8,10.6,8.8c5,0,8.3-2.3,10.3-4.9v2.6
		c0,1.1,0.8,2,2,2c1.2,0,2-0.9,2-2.1V25.5c0-3.6-1-6.4-2.9-8.3C162.7,15.1,159.7,14.1,155.6,14.1z M163.7,32.4
		c0,4.5-4.3,7.7-9.5,7.7c-3.9,0-7.2-2.1-7.2-5.7v-0.1c0-3.6,3-5.9,8.3-5.9c3.5,0,6.3,0.6,8.4,1.2V32.4z M188,18.2
		c1,0,1.9-0.8,1.9-1.9c0-1-0.9-1.9-1.9-1.9h-7.4V7.8c0-1.2-1-2.1-2.2-2.1c-1.2,0-2.1,1-2.1,2.1v6.7h-2.3c-1,0-1.9,0.8-1.9,1.9
		c0,1,0.9,1.9,1.9,1.9h2.3v17.1c0,5.8,3.5,8,8.1,8c1.7,0,3-0.3,4.2-0.8c0.7-0.3,1.2-0.9,1.2-1.6c0-1-0.8-1.8-1.8-1.8
		c-0.3,0-1.1,0.4-2.6,0.4c-2.9,0-4.8-1.3-4.8-4.7V18.2H188z M239.7,13.9c-7.9,0-13.7,6.6-13.7,14.8v0.1c0,8.8,6.4,14.8,14.2,14.8
		c4.9,0,8.1-1.7,10.8-4.3c0.4-0.4,0.7-0.9,0.7-1.4c0-1-0.8-1.8-1.9-1.8c-0.5,0-0.9,0.2-1.2,0.5c-2.1,1.9-4.7,3.3-8.2,3.3
		c-5.1,0-9.4-3.5-10-9.6H251c1,0,2-0.8,2-2C253,20.7,248.2,13.9,239.7,13.9z M230.4,27.1c0.6-5.5,4.3-9.7,9.3-9.7
		c5.7,0,8.7,4.5,9.1,9.7H230.4z M125.8,13.9c-7.9,0-13.7,6.6-13.7,14.8v0.1c0,8.8,6.4,14.8,14.2,14.8c4.9,0,8.1-1.7,10.8-4.3
		c0.4-0.4,0.7-0.9,0.7-1.4c0-1-0.8-1.8-1.9-1.8c-0.5,0-0.9,0.2-1.2,0.5c-2.1,1.9-4.7,3.3-8.2,3.3c-5.1,0-9.4-3.5-10-9.6H137
		c1,0,2-0.8,2-2C139,20.7,134.2,13.9,125.8,13.9z M116.4,27.1c0.6-5.5,4.3-9.7,9.3-9.7c5.7,0,8.7,4.5,9.1,9.7H116.4z M24.6,0
		C11,0,0,11,0,24.5C0,38,11,49,24.6,49c13.6,0,24.6-11,24.6-24.5C49.3,11,38.2,0,24.6,0z M26.9,46.3c-0.3,0-0.5-0.1-0.7-0.2
		c-0.2-0.2-0.3-0.4-0.3-0.7v-5.7c0-0.4,0.3-0.8,0.7-0.9l8.1-2.2c0.7-0.2,1.1-0.9,0.9-1.6c-0.2-0.7-0.9-1.1-1.6-0.9l-6.9,1.8
		c-0.3,0.1-0.6,0-0.8-0.2c-0.2-0.2-0.4-0.4-0.4-0.7V33c0-0.4,0.3-0.8,0.7-0.9l10.7-2.9c0.7-0.2,1.1-0.9,0.9-1.6
		c-0.2-0.7-0.9-1.1-1.6-0.9l-9.5,2.6c-0.3,0.1-0.6,0-0.8-0.1c-0.2-0.2-0.4-0.4-0.4-0.7v-2.2c0-0.4,0.3-0.8,0.7-0.9l8.1-2.1
		c0.7-0.2,1.1-0.9,0.9-1.6c-0.2-0.7-0.9-1.1-1.6-0.9l-6.9,1.8c-0.3,0.1-0.6,0-0.8-0.2c-0.2-0.2-0.4-0.4-0.4-0.7v-2.2
		c0-0.4,0.3-0.8,0.7-0.9l5.2-1.4c0.7-0.2,1.1-0.9,0.9-1.6c-0.2-0.7-0.9-1.1-1.6-0.9l-4,1.1c-0.3,0.1-0.6,0-0.8-0.2
		c-0.2-0.2-0.4-0.4-0.4-0.7V9.4c0-0.7-0.6-1.3-1.3-1.3c-0.7,0-1.3,0.6-1.3,1.3v5.5c0,0.3-0.1,0.6-0.4,0.7c-0.2,0.2-0.5,0.2-0.8,0.2
		l-4-1.1c-0.7-0.2-1.4,0.2-1.6,0.9c-0.2,0.7,0.2,1.4,0.9,1.6l5.2,1.4c0.4,0.1,0.7,0.5,0.7,0.9v2.2c0,0.3-0.1,0.6-0.4,0.7
		c-0.2,0.2-0.5,0.2-0.8,0.2l-6.9-1.8c-0.7-0.2-1.4,0.2-1.6,0.9c-0.2,0.7,0.2,1.4,0.9,1.6l8.1,2.1c0.4,0.1,0.7,0.5,0.7,0.9v2.2
		c0,0.3-0.1,0.6-0.4,0.7c-0.2,0.2-0.5,0.2-0.8,0.1l-9.5-2.6c-0.7-0.2-1.4,0.2-1.6,0.9c-0.2,0.7,0.2,1.4,0.9,1.6l10.7,2.9
		c0.4,0.1,0.7,0.5,0.7,0.9v2.2c0,0.3-0.1,0.5-0.4,0.7c-0.2,0.2-0.5,0.2-0.8,0.2l-6.9-1.8c-0.7-0.2-1.4,0.2-1.6,0.9
		c-0.2,0.7,0.2,1.4,0.9,1.6l8.1,2.2c0.4,0.1,0.7,0.5,0.7,0.9v5.7c0,0.3-0.1,0.5-0.3,0.7c-0.2,0.2-0.4,0.3-0.7,0.2
		C11.3,45.1,2.6,35.8,2.6,24.5c0-12.1,9.9-21.9,22-21.9c12.1,0,22,9.8,22,21.9C46.7,35.8,38,45.1,26.9,46.3z"/>
</g>
</svg>
