<?xml version="1.0" encoding="utf-8"?>
<!-- Generator: Adobe Illustrator 19.2.1, SVG Export Plug-In . SVG Version: 6.00 Build 0)  -->
<svg version="1.1" id="Layer_1" xmlns="http://www.w3.org/2000/svg" xmlns:xlink="http://www.w3.org/1999/xlink" x="0px" y="0px"
	 viewBox="0 0 171 42" style="enable-background:new 0 0 171 42;" xml:space="preserve">
<g>
	<path class="st0" d="M77.7,20.3c5.4-1.8,6.4-6.3,6.4-9.9c0-5.6-4-10.4-15.8-10.4l-22,0c0,0,0,40.7,0,41.9c1.2,0,22,0,22,0
		c11.9,0,16.2-6,16.2-12.1C84.5,22.6,77.7,20.3,77.7,20.3z M70.9,32.1H56.8v-7h14.4h0l0,0c1.8,0.2,3.2,1.7,3.2,3.4
		C74.4,30.5,72.8,32.1,70.9,32.1z M71.5,16l-14.7,0l0-6.9h14.8h0.1l0.1,0c1.7,0.3,2.9,1.7,2.9,3.3C74.5,14.2,73.2,15.8,71.5,16z
		 M144.2,32.4v-7.3h24.2v-9.2h-24.2l0-6.8H171l0-9.1h-37.2c0,0,0,40.8,0,42c1.2,0,37.2,0,37.2,0l0-9.6H144.2z M127.4,11
		c0-9.1-7.9-11-15.2-11H89.7V42c0,0,9.3,0,10.3,0c0-1.2,0-17,0-17s11.4,0,11.4,0c3.3,0,5.8,2.7,5.8,5.9v11l10.1,0l0-13.5
		c0-6.3-6.1-8.1-6.1-8.1S127.4,18.4,127.4,11z M117.8,13.1c-0.2,1.4-1.6,2.9-3.3,2.9l-14.5,0V9.2h14.5c1.7,0,3.1,1.3,3.3,2.9V13.1z
		 M20.7,31.7c-7.8-0.8-10.5-6.4-10.5-11.1c0-5.8,4-10,10.2-10.8c2.9-0.4,19-0.2,19.2-0.2l0.3,0l0-9.5l-0.3,0L21.3,0
		c-2,0.1-5.4,0.3-8.8,1.7C9.2,3.3,6.3,5.6,4.2,8.4C1.4,12.1,0,16.4,0,20.9c0,1.4,0.1,2.8,0.3,4.2c1.3,6.4,5.5,11.6,11.6,14.4
		c2,0.9,5.2,2,11.5,2.3c0,0,3.4,0.1,3.4,0.1c0,0,12.7,0,12.7,0h0.3l0-10.1l-0.3,0C39.5,31.9,25.5,32.1,20.7,31.7z"/>
</g>
</svg>
