<?xml version="1.0" encoding="utf-8"?>
<!-- Generator: Adobe Illustrator 19.2.1, SVG Export Plug-In . SVG Version: 6.00 Build 0)  -->
<svg version="1.1" id="Layer_1" xmlns="http://www.w3.org/2000/svg" xmlns:xlink="http://www.w3.org/1999/xlink" x="0px" y="0px"
	 viewBox="0 0 189 62" style="enable-background:new 0 0 189 62;" xml:space="preserve">
<g>
	<path class="st0" d="M46.5,21.9H24.4v6.5h15.6c-0.8,9.2-8.4,13.1-15.6,13.1c-9.2,0-17.3-7.3-17.3-17.4c0-9.9,7.7-17.5,17.3-17.5
		c7.4,0,11.8,4.7,11.8,4.7l4.6-4.7c0,0-5.9-6.6-16.6-6.6C10.6,0,0,11.5,0,24c0,12.2,9.9,24.1,24.6,24.1c12.9,0,22.3-8.8,22.3-21.9
		C46.9,23.5,46.5,21.9,46.5,21.9L46.5,21.9z M64.5,17.2c-9,0-15.5,7.1-15.5,15.3c0,8.4,6.3,15.6,15.6,15.6c8.5,0,15.4-6.5,15.4-15.4
		C80,22.4,72,17.2,64.5,17.2z M64.6,42c-4.9,0-8.8-4-8.8-9.4c0-5.4,3.8-9.4,8.8-9.4c4.5,0,8.7,3.6,8.7,9.4
		C73.3,38.3,69.1,42,64.6,42z M98.3,17.2c-9,0-15.5,7.1-15.5,15.3c0,8.4,6.3,15.6,15.6,15.6c8.5,0,15.4-6.5,15.4-15.4
		C113.8,22.4,105.8,17.2,98.3,17.2z M98.4,42c-4.9,0-8.8-4-8.8-9.4c0-5.4,3.8-9.4,8.8-9.4c4.5,0,8.7,3.6,8.7,9.4
		C107.1,38.3,102.9,42,98.4,42z M139.8,20.7c-2-2.1-4.7-3.5-8.3-3.5v0c-8.3,0-14.8,7.3-14.8,15.4c0,9.3,7.6,15.5,14.7,15.5
		c4.4,0,6.7-1.7,8.5-3.8v3c0,5.3-3.2,8.5-8.1,8.5c-4.7,0-7.1-3.5-7.9-5.5l-5.9,2.5c2.1,4.5,6.3,9.1,13.9,9.1
		c8.3,0,14.6-5.2,14.6-16.1V18.1h-6.5V20.7z M132,42c-4.4,0-8.5-3.6-8.5-9.3c0-5.9,4.3-9.5,8.6-9.5c4.1,0,8.3,3.5,8.3,9.4
		C140.3,38.7,136.1,42,132,42z M175.9,42c-4.3,0-6.3-2.4-7.6-4.7l20.7-8.6l-1.1-2.5c-2-4.9-6.7-9.1-12.9-9.1l0,0
		c-7.8,0-14.4,6.2-14.4,15.4c0,9.7,7.3,15.5,15.2,15.5c6.5,0,10.6-3.6,12.9-6.8l-5.3-3.6C182,39.9,179.7,42,175.9,42z M175.3,23.1
		c2.8,0,4.9,1.5,5.7,3.3l-13.8,5.8C166.6,27.7,170.9,23.1,175.3,23.1z M150.8,47.2h6.8V1.6h-6.8V47.2z"/>
</g>
</svg>
