<?xml version="1.0" encoding="utf-8"?>
<!-- Generator: Adobe Illustrator 19.2.1, SVG Export Plug-In . SVG Version: 6.00 Build 0)  -->
<svg version="1.1" id="Layer_1" xmlns="http://www.w3.org/2000/svg" xmlns:xlink="http://www.w3.org/1999/xlink" x="0px" y="0px"
	 viewBox="0 0 247 51" style="enable-background:new 0 0 247 51;" xml:space="preserve">
<style type="text/css">
	.st0{fill:none;}
</style>
<path class="st0" d="M10.4,0v1.3H15v24.5c0,7.4-2,9.4-6.5,9.4c-2.8,0-3.3-2.2-3.3-3.3c0-2.7-0.1-4.3-2.5-4.3C0.3,27.6,0,30,0,30.8
	c0,3.4,1.5,5.9,8.1,5.9c7.9,0,12.1-2.7,12.1-11.6V1.3l4.8,0V0H10.4 M24.8,31.9c-0.6,0.6-0.8,1.2-0.8,2.1c0,0.8,0.3,1.5,0.8,2
	c0.6,0.6,1.2,0.8,2,0.8c0.8,0,1.5-0.3,2-0.8c0.6-0.5,0.8-1.2,0.8-2c0-0.8-0.3-1.5-0.8-2.1c-0.6-0.6-1.2-0.8-2-0.8
	C26.1,31.1,25.4,31.3,24.8,31.9 M57.1,31.9c-0.6,0.6-0.8,1.2-0.8,2.1c0,0.8,0.3,1.5,0.8,2c0.6,0.6,1.2,0.8,2,0.8
	c0.8,0,1.5-0.3,2.1-0.8c0.6-0.5,0.8-1.2,0.8-2c0-0.8-0.3-1.5-0.8-2.1c-0.6-0.6-1.2-0.8-2.1-0.8C58.3,31.1,57.7,31.3,57.1,31.9
	 M34.8,0v1.3H39v27.9c0,2.2-0.1,2.8-0.4,3.4c-0.3,0.7-0.8,1.3-1.7,1.6c-0.6,0.3-1.6,0.4-2.9,0.5v1.2h15.3v-1.1
	c-1.3,0-2.3-0.2-2.9-0.4c-0.9-0.4-1.5-0.9-1.8-1.6c-0.3-0.6-0.4-1.2-0.4-2.3v-9.6l3.8,0c11,0,14.1-4.4,14.1-10.4C62,4.3,60.1,0,49,0
	L34.8,0 M44.2,1.4l2.6,0c8.5,0,10.3,3.5,10.3,9.3c0,5.8-3.3,8.7-10.1,8.7h-2.9V1.4 M101.8,0.1C101.6,0.4,91,27.4,91,27.4l-0.2,0.2
	l-0.3-0.2c0,0-11.4-27-11.5-27.3H69v1.2h4.3V29l-0.1,2.5c-0.1,0.7-0.3,1.3-0.6,1.7c-0.3,0.5-0.9,0.9-1.6,1.2
	c-0.5,0.2-1.2,0.3-2.1,0.3v1.2h9.9v-1.1c-0.8,0-1.2-0.1-1.7-0.3c-0.7-0.2-1.3-0.6-1.6-1.1c-0.3-0.5-0.5-1.1-0.6-1.8L74.9,29V5h0.6
	c0,0,12.9,30.5,13,30.8h1.1l12.2-30.5h0.3v24.7c0,1.1-0.1,1.9-0.3,2.5c-0.2,0.7-0.8,1.3-1.5,1.7c-0.6,0.3-1.4,0.4-2.5,0.4v1.2h13.9
	v-1.2c-1.1-0.1-2-0.2-2.5-0.5c-0.8-0.4-1.3-1-1.6-1.7c-0.2-0.6-0.3-1.4-0.3-2.4V1.3l3.7,0V0.1H101.8 M114,23.3
	c0,12.8,9.8,13.6,11.9,13.6c4.2,0,12.1-2.6,12.1-13.8c0-8.7-5.1-13.5-11.9-13.5C118.7,9.6,114,14.6,114,23.3 M119.5,23.4
	c0-7,0.4-12.2,6.4-12.2c6.5,0,6.5,5.4,6.5,11.8c0,9.2-1.5,12.3-6.5,12.3C120.4,35.3,119.5,32.5,119.5,23.4 M150.3,15.3l-0.3,0
	c0,0-0.6-3.9-0.9-5.1c-1.7,0-8.6,0-8.6,0v1.3h4.6c0,0,0,4,0,5.4v12.2c0,1.8-0.2,3-0.6,3.7c-0.5,0.9-1.5,1.3-3.3,1.3h-0.8v1.6h14.4
	v-1.6h-0.8c-1.9,0-2.7-0.4-3.2-1.2c-0.5-0.7-0.7-2-0.7-3.8v-9.2c0-3.1,2.3-6.6,5-6.6c2.9,0,2.8,4.5,6.1,2.7c1.8-1,1.5-6.1-4-6.1
	C152.9,10,151.6,12.6,150.3,15.3 M195.2,11.6c-1.6,1.3-2.3,2.4-2.3,4.1c0,0.8,0.2,1.3,0.6,1.7c0.4,0.4,0.9,0.6,1.6,0.6
	c1.4,0,2.2-0.7,2.5-2.6c0.2-1.4,0.5-2.2,1.2-3c0.7-0.8,1.9-1.2,3.4-1.2c1.8,0,3.1,0.5,3.8,1.5c0.7,0.9,1,2.2,1,3.7v4.3
	c-4.6,0.4-15.5,1.3-15,9.7c0.2,3.3,3,6.2,6.7,6.2c4.1,0,6.7-2.4,8.4-4.2c0.3,1.8,1.9,3.9,4.9,3.9c3.3,0,5.3-1.7,5.6-5.8h-0.9
	c-0.2,1.8-1.3,2.8-2.2,2.8c-1.5,0-2-0.9-2.1-2.3l-0.1-3.3V16.9c0-2.3-0.4-3.9-1.7-5.2c-1.3-1.4-3.9-2.1-7.6-2.1
	C199.5,9.6,196.9,10.3,195.2,11.6 M197.1,29.4c0-4.8,6.4-7.2,10-7.2v8.2l-0.1,0.2l-0.1,0.1c-2.5,2.3-4.3,3.1-5.7,3.1
	C197.6,33.9,197.1,30.9,197.1,29.4 M227.8,14.9l-0.5,0l-0.9-4.7l-7.8,0v1.3c1.5,0.1,3.9,0.1,3.9,0.1v17.6c0,1.4-0.1,2.4-0.3,3
	c-0.2,0.8-0.7,1.3-1.4,1.6c-0.5,0.2-1.2,0.3-2.2,0.4v1.6h12.4v-1.6c-1.2-0.1-2.1-0.4-2.5-1.1c-0.5-0.7-0.7-1.9-0.7-3.6v-6.8
	c0-2.8,0-5.6,0.9-7.3c1-1.8,2.9-2.9,5-2.9c1.9,0,2.9,0.6,3.5,1.8c0.5,1,0.8,3.9,0.8,6l-0.1,8.4c0,1.4,0.2,2.4,0.1,3.1
	c-0.1,0.8-0.5,1.4-1.1,1.8c-0.4,0.3-1.1,0.5-2,0.5v1.6h12v-1.6c-1.5-0.1-2.5-0.5-2.9-1.2c-0.5-0.7-0.9-2-0.9-3.8l0.1-11.6
	c0-1.7-0.2-3.1-0.8-4.3c-0.6-1.1-1.5-2-2.6-2.6c-1.1-0.6-2.4-0.8-3.8-0.8C230.9,9.9,228.9,13,227.8,14.9 M187.8,8.6
	c-0.7,0.2-1.2,0.9-1.5,2c-0.2,1-0.6,1.6-1.1,1.8c-0.5,0.2-1.1,0.1-1.8-0.1c-1.3-1.2-3.8-2.7-8.1-2.7c-7,0-10.1,5.1-10.1,9.7
	c0,5.4,2,8,6.5,9c0.3,0.1,0.3,0.4,0,0.4c-3.8,0.8-7.2,1.9-7.2,5.6c0,2.2,1.3,3.5,2.9,4.1c1.8,0.7,4.3,1.1,7.4,1.2
	c2.8,0,4.7,0.1,6,0.3c1.4,0.2,2.5,0.6,3.3,1.2c0.8,0.6,1.3,1.6,1.3,2.9c0,1.7-0.9,3.1-2.7,4.1c-1.7,1-4,1.4-6.8,1.4
	c-2.4,0-4.4-0.3-6.2-1.4c-1.3-0.8-1.6-2.5-1.3-3.7c0.2-1.2-0.2-2.5-1.5-2.7c-0.8-0.1-1.7,0.3-2.1,1c-0.4,0.6-0.6,1.4-0.6,2.3
	c0,3,2.3,4.5,4.1,5c2.7,0.8,4.5,1,7,1c3.3,0,6-0.5,7.9-1.5c1.9-1,3.2-2.2,4-3.6c0.8-1.4,1.1-2.8,1.1-4.2c0-1.8-0.4-3.3-1.2-4.4
	c-2.5-3.5-6-3-14-3.4c-3.8,0-4.6-0.7-4.6-1.9c0-1.8,1.4-2.4,7-3.3c5.5-0.9,10.6-2.9,10.6-9.7c0-2-0.4-3.6-1-4.8
	c1.1,0.3,2.2,0.3,3.1-0.1c1.1-0.3,1.8-0.9,2.2-1.7c0.4-0.8,0.5-1.5,0.3-2.3c-0.4-1.2-1-1.8-1.9-1.8C188.4,8.4,188.1,8.5,187.8,8.6
	 M170.3,19.3c0-4.8,1.6-8.3,5.1-8.3c4.1,0,5.3,3.2,5.3,8.2c0,7.1-2.2,8.1-5.3,8.1C172.2,27.2,170.3,26,170.3,19.3"/>
</svg>
