<?xml version="1.0" encoding="utf-8"?>
<!-- Generator: Adobe Illustrator 19.2.1, SVG Export Plug-In . SVG Version: 6.00 Build 0)  -->
<svg version="1.1" id="Layer_1" xmlns="http://www.w3.org/2000/svg" xmlns:xlink="http://www.w3.org/1999/xlink" x="0px" y="0px"
	 viewBox="0 0 271 18" style="enable-background:new 0 0 271 18;" xml:space="preserve">
<g>
	<path class="st0" d="M72,0H42c-1.4,0-2.5,1.1-2.5,2.4v13.2c0,1.3,1.1,2.4,2.5,2.4H72c1.4,0,2.5-1.1,2.5-2.4V2.4
		C74.4,1.1,73.3,0,72,0z M71,13.7c0,0.4-0.4,0.8-0.8,0.8H43.9c-0.4,0-0.8-0.4-0.8-0.8V4.3c0-0.4,0.4-0.8,0.8-0.8h26.3
		c0.4,0,0.8,0.4,0.8,0.8V13.7z M32.2,0H3.5h-1H0v2.6v8.6V18h3.5v-4.3h28.7c1.4,0,2.6-1.1,2.6-2.5V2.6C34.8,1.1,33.7,0,32.2,0z
		 M31.3,9.1c0,0.6-0.5,1.1-1.1,1.1h-2.6H4.5h-1V3.5h1h23.1h2.6c0.6,0,1.1,0.5,1.1,1.1V9.1z M113.9,11.1V2.6c0-1.4-1.2-2.6-2.6-2.6
		H82.6h-1H79v2.6v8.6V18h3.5v-4.3h25.5l2.2,4.3h3.8l-2.3-4.4C113,13.4,113.9,12.3,113.9,11.1z M110.3,9.1c0,0.6-0.5,1.1-1.1,1.1
		h-2.6H83.5h-1V3.5h1h23.1h2.6c0.6,0,1.1,0.5,1.1,1.1V9.1z M226.9,7.2h-26V0h-3.5v18h3.5v-7.2h26V18h3.5V0h-3.5V7.2z M159.3,2.4
		v13.2c0,1.3,1.1,2.4,2.5,2.4h30.3v-3.5c-0.1,0-0.2,0-0.3,0h-28.2c-0.4,0-0.8-0.4-0.8-0.8V4.3c0-0.4,0.4-0.8,0.8-0.8h28.2
		c0.1,0,0.2,0,0.3,0V0h-30.3C160.4,0,159.3,1.1,159.3,2.4z M271,3.5V0h-31.6h-1.5h-2v18h2h1.5H271v-3.5h-31.6v-3.8H271V7.2h-31.6
		V3.5H271z M120.1,2.4v1.1v1.6v3.2c0,1.3,1.1,2.4,2.5,2.4h2.6v0c0.1,0,0.2,0,0.3,0h23.1c0.4,0,0.8,0.4,0.8,0.8v1.3v0.8
		c0,0.4-0.4,0.8-0.8,0.8h-28.2c-0.1,0-0.2,0-0.3,0V18h30.3c1.4,0,2.5-1.1,2.5-2.4v-1.1v-1.6V9.7c0-1.3-1.1-2.4-2.5-2.4h-2.6v0
		c-0.1,0-0.2,0-0.3,0h-23.1c-0.4,0-0.8-0.4-0.8-0.8V5.1V4.3c0-0.4,0.4-0.8,0.8-0.8h28.2c0.1,0,0.2,0,0.3,0V0h-30.3
		C121.2,0,120.1,1.1,120.1,2.4z"/>
</g>
</svg>
