<?xml version="1.0" encoding="utf-8"?>
<!-- Generator: Adobe Illustrator 19.2.1, SVG Export Plug-In . SVG Version: 6.00 Build 0)  -->
<svg version="1.1" id="Layer_1" xmlns="http://www.w3.org/2000/svg" xmlns:xlink="http://www.w3.org/1999/xlink" x="0px" y="0px"
	 viewBox="0 0 277 96" style="enable-background:new 0 0 277 96;" xml:space="preserve">
<style type="text/css">
	.st0{fill:none;}
</style>
<g>
	<path class="st0" d="M62.9,18.2c-3.1,4.7,1,9.5-5.6,11.1c7.8,0.1,3.8-6.6,6.6-10.4C66.8,15,70,16.4,71,12
		C69.4,15.6,64.7,15.5,62.9,18.2z M62.7,35.8c-1.3-0.2-2.1,0.7-1.9,1.1C61.2,37.5,61.7,36.4,62.7,35.8z M58.7,23.5
		c-0.9,2.5-3.4,3.1-4.6,5.3c0.7,0,4.3-0.8,5.6-3.1c1.3-2.2,0-8.6,4.2-10.2c4.3-1.6,8.9-4.1,3.8-9.3c7.9,2,3.5,10.4,2.5,11.7
		c-0.9,1.2-3.8,3.5-3.8,7.2c0,2.7-2.5,5.9-4.4,6.3c2,0.8,5-3.8,5-3.8l9.8-12.8l-5.7,2.9c0,0,1.6-1.3,1.6-5.8c0-6.3-6.7-7.4-6.7-5.5
		c0,1.3,2.3,2.2,2.3,4.4c0.1,2.1-2.9,3.4-5.2,4l-1-3.5v4C58.4,17.2,59.7,21,58.7,23.5z M79.5,28.4c-1.1,5.4-11.2,1.4-11.1,9.1
		C70.5,33.7,80.3,34,79.5,28.4z M45.2,12.8l1.8,4.8c0,0-1.7,1.9-1.7,5.4c0,6.8,5.5,7.4,5.1,4.7c-3.9,1.8-4.1-3.9-3-5.1
		c0,0-0.7,3,1.9,4c-3.5-5.8,3.4-8,3.4-12.6c0-3.8-2.3-5.1-2.3-8.6c0.1-4.2,6.3-5.3,6.3-3.7c0,1.2-4.5,1.3-4.6,5.7
		c-0.1,4.1,4.5,5.1,4.4,9c-0.1,2.6-4.7,5-1.8,9.9l6.6-18.7l-5.1,5.7c-1.6-2-2.9-2.2-2.9-5.9c0-3.7,4-4.2,4-5.9c0-1.4-2-1.6-3.5-1.6
		c-2.3-0.1-6.3,1.9-6.3,6.1c0,4.2,2.9,6.4,0,10.4L45.2,12.8z M51.2,11.8c1.8,5.7-4.1,7.3-4.6,11C46.2,18.3,51.9,16.1,51.2,11.8z
		 M74.3,31.2c-5.5-2.2-8.7,2.9-8.7,4.5c1.3-0.6,3.5-3,4.3-3.6C71.4,31.1,73.7,31.7,74.3,31.2z M61.4,39c0.4,0.9,2-1.1,4.5-0.3
		C64.7,37.9,61.2,37.9,61.4,39z M54,27c-1.8-1.8-1-4.9-1-4.9S50.1,25.6,54,27z M59.6,41.8c0.2,1.1,2.2-1.3,6.1,0.4
		C64.3,40.3,59.3,40.2,59.6,41.8z M45.8,34.6c-1.5,1.8-2.6-0.2-4.5-0.2c-1.7,0-3.6,1.9-3.9,0.6c-0.3-0.9,1.4-2.5,3.7-2.7
		c-1.9-0.5-5,1.2-5.6,3.2c-0.6,0.1-1.6-0.7-1.6-0.7c0.5,4.4,4.6,0.5,6.2,0.5C41.3,35.4,45.7,38.6,45.8,34.6z M67.4,28.3
		c-1.6,1.7-1.5,3.1-3.8,4.6c3,1.3,3.1-2.7,6.1-3.6c2.1-0.6,3.6,1.9,6.6,0.5c3-1.4,1.9-6.9,3.3-9.3c1.4-2.4,5.4-4.7,8.2,0.2
		c0,0-4.7-4.7-7,0.9c1.5-1.3,3.8-1.7,3.8-0.5c-1.2,0.4-3.2,1.1-3.2,5.5c-0.1,5.1-2.1,6.2-3.7,7.2c-2.3,1.5-7.6,1.4-8.8,4.9l18.5-8.3
		h-5.7c0.7-4.2-0.9-10.4,6.9-8.9c0.9-2.1-5.5-8.7-11.1-1.1L77,18.6C75.9,28.6,70.6,24.7,67.4,28.3z M77.1,23.3
		c1,1.6-1.9,4.6-1.9,4.6c0.7,0.3,0.7,1.3-0.2,1.6c-1.7,0.5-3-1.4-5.2-0.8C70.3,27.9,74.8,28,77.1,23.3z M78.2,57.9
		c2.8-0.1,5.1-2.9,6.7-3.9c-2.3,0.5-3.5,2.6-6.7,2.7c-5.2,0.1-7.9-14.6-16.7-11.6C70.6,45.8,70.4,58.1,78.2,57.9z M60,34.6
		C59.1,36,57.6,34,56.4,34c-1.7,0-2.5,0.7-3.6,1.3c-1.3,0.7-2.5,0-2-0.7c-1,0-1.6-1.2,0.1-2.7c-3,0.3-2.5,4.4-0.3,4.4
		c2.2,0,2.6-1,4.2-1c1.7,0,2.3,1.1,3.6,1.1C59.8,36.4,60.6,35.4,60,34.6z M51.7,27c-3.9-6.4,5.2-7.9,2.6-13.2
		C54.7,17.9,45.9,22.2,51.7,27z M54,36.4c-3.2,0.6-2.1,4.5-1.8,5c1.4-0.8,4.9-1,6.4-3.1C57.1,37.6,55.4,36.2,54,36.4z M53.4,37.7
		c0.1,0.3,0.6,1.9,1.2,2.6C53.4,40.7,52,38.8,53.4,37.7z M55.7,39.9c-0.1-1-1-2.7-1.1-2.9C56.5,36.6,57.1,39.4,55.7,39.9z M66,20.2
		c2.1-3.1,4-2.5,5-5.8c-1.4,2.6-4.5,3.1-5.9,5.3c-2.5,3.7,0.4,9.1-4.9,10.7C66.7,30.6,63.6,22.9,66,20.2z M32.7,32.6
		c-1.6,0-4.1-0.8-5-2.9C26.9,31.6,29.4,36.8,32.7,32.6z M23.9,16.5l4.1,2c0.1,1.4,0.7,2.9,2.2,4.6c1.6,1.9,6,2.5,6.2,6.9
		c1.3-1.3,0.3-4.5-2.7-6.3C22.6,17.2,41.4,7,29.3,3.3c10.4-0.7,6,8.7,6.8,12.5c1.2,5.2,6,4,8.5,7.2L41.8,7.2l-2.7,11.1
		c-3.5-0.5-2.3-5.6-2.2-10.2c0.2-8.7-14.6-6.2-12.6-1.3c0.8,1.9,5.8-2.3,5.8,2.1c0,3-1.8,5.6-2,8.5L23.9,16.5z M25.4,6.1
		c-1-1.2,4-2.6,4.9,0.5C27.8,4.9,25.8,6.6,25.4,6.1z M52.2,50.1c-0.5,0.3-1.6,0.7-2.5,1.3c-0.1,0.2-0.3,0.7-0.5,0.8
		C50.2,52.4,52.1,51,52.2,50.1z M52.9,51.4c-0.1,0.2-0.7,0.5-2.1,1c-0.2,0.3-0.6,0.8-1,1C51.5,53.8,53.2,52.2,52.9,51.4z M31.4,35.1
		c-7.8,0.1-2.1-8.5-7.9-9.7c3,2,1.3,3.9,1.4,7.1C25,36.5,29.7,37.7,31.4,35.1z M55.9,81.7c0,0,3.8-2.2-0.3-4.5
		C56.8,79.4,55.9,81.7,55.9,81.7z M91.6,53.2c-4.9-2.9-9.1,1.3-12.5,0.6L92,48H73.2l-0.7-1.3c3.4,1.5,5.8,0.1,7.4-1.5l5.3,0.8
		l-4.4-1.7c1-1.1,1.9-2,3.1-1.5c1.6,0.6,2.5,2,5.3,2c4.6,0,8-8.2,1.9-11.9c0.5,5.9-2.3,6.2-7,3.1l1.6-2.7l-2.4,2.1
		c-4.6-2-6.8,2-8.7,3.3c-1.9,1.3-3.7-1.3-6,1.8c3.5-1.2,5.3,2.2,7.6,0c-1,5.9-4.3-1.8-7.7,1.2c2.9,0.2,4.5,2.9,6.8,2.9
		c4.3,0,0.5-8.3,6.5-8.3l-1-0.7c3.4-0.3,3.6,3.1,8.8,3.2c0.5,0.8-1.3,0.8-2.7,0.4c-0.2,1.1,7,3.6,5.3-4.7c2.3,1.2,1.8,6.4-0.3,8.4
		c-0.4,0.4-0.8,0.6-1.1,0.2c-0.6-0.9,0.9-0.9,1.3-2.2c-1.6,1.4-4.4,1.3-6.3-0.5c-1.9-1.8-4.7-3.9-5.9-0.2c-1.2,3.7-2.2,5.4-4.4,5.5
		c-3.1,0.1-6.3-5.1-9.7-2.3c6.5,0.6,8,11,13.7,11.1c4.4,0,5.4-2,8.3-2c2.9,0,5.9,1.5,5.9,5.4c0,2.3-1.2,3.6-1.2,3.6s0.9-1.9,0.4-4.3
		c-0.4-2.3-2.4-3.7-4.9-3.7c-3.6,0-6.4,5.9-10.4,5.9c-7.9,0-10.7-15.5-19-13.1c6.1,4.2,7.4,10.9,10.8,13.4c3.3,2.6,7.3,1.5,9.5,3.5
		c2.6,2.3,0.9,9,5.2,10.2l-0.5-1.1c1.6,1.3,4.1,1.2,5.2,0.9c0.2,1.1-2,1.7-3.3,1.4v0.4c-7.1-1.1-3.6-7.1-7.1-10.2
		c-1.9-2-7.6-1.1-10.2-4c-2.6-2.9-4.6-11.4-9.7-12.7c4.5,2.9,5.5,10.4,8.7,14.1c3.2,3.7,7.5,1.7,9.4,3.6c3.8,3.8,2.2,6.4,4.8,8.6
		c-4.7-1.6-3.1-7.7-8.7-7.7c-3.1,0-6.5,1.3-8.7-1c-2.6-2.7-2.3-5.6-2.1-9c0.5,3.2,1.1,10.5,6.5,9.6c-6.8-2.3-3.2-15.7-12.6-17.7
		c-0.6-2.1,0.5-3,2.1-4.4c-2.1-0.1-4.1-0.5-1.2-3.5c-1.8,1.2-3.8,0.8-4.2,2.1c0,0,2.3,5.1,2.3,6.1c0,1-2.2,5.2-2.5,5.4
		c-0.8,0.4-2.5,0.5-3.2,0.3c-0.7-0.2-1.6-2.5-1.2-3.2c0.5-1.1,4.7-2,4.8-3.7c0.1-1.3-1.7-1.4-1.6-0.7c1,0.3,1.5,1.8-1.5,2.5l0.7-1.1
		c0,0-2.2,1.8-2.3,1.8c-0.1,0.1-0.6,0.1-0.9,0c-0.3-0.1-3.5-1.6-3-3.1c0,0,0.9,0.4,3.4,0.4c2.4,0,2.6-1,2.6-1s-1.3,0.3-2.6,0.3
		c-1.3,0-2.6-0.3-2.6-0.3c-1-0.2,0.1-1.6,0.4-1.6c0,0,2.3,0,2.5,0c0.2,0,0.4-0.4,0-0.4c-0.3,0-1.9,0-2-0.4c-0.2-0.7,0.3-4.2,0.3-4.2
		l-0.9-0.4c0,0,0.5-1.3,0.1-1.7c-0.5-0.4-1.6-0.3-1.6-0.3c1.3,7.5-5.6,8.6-6.1,6.3C37,41.4,41.4,42,41.4,42
		c-0.9-0.6-3.9-0.5-5.6-2.2c0,0-0.1,0.4,0,0.7c-2.1,0.9-1.5,2.9-1.5,2.9s0.9-1.3,1.8-1.2c0,0-1.4,1.8,0.6,3.9
		c-1.1,0.3-2.8-0.7-3.6-2.4c-0.4,0.2-0.4,1.4-0.4,2.1c-1-1.1-1.6-2.7-0.7-4c-1.2,0.6-1.3,0.8-1.3,0.8c0.1-1,1.8-1.6,2.7-2.8
		c0.9-1.2,0.7-3-1.2-3.7c0.1,1.8-0.8,3-2.6,3.6c-1.7,0.6-3.2-0.2-4.9,0.2c2.9,0.7,3.2,4.7,6.1,6.4c-3.9-0.9-5-6.2-9.7-5.7
		c2.7-3.9,7-0.5,8.7-3.2c-4.6,1.1-7.7-2.8-8.2-7.1c-0.8-6.5-6.3-3.3-6.2-6.5c2.8,1.2,8.8-3.5,10.7,1.9c1.9,5.6,5.7,7.9,9.1,5.3
		L20.4,15.6l1.9,6.4c-3.9,0.8-8.6-1.6-6.1-7c-3.7-1.7-8.6,4.4-4.1,9.3c2.1,2.2,7.2,1.4,8.5,6l-4.8-0.4l5,1.3l1.5,4.4l-11.6-5.7
		l7.1,8.3c-4.2,2.2-5.2-4.1-10.6-4c-3.8,0.1-8,4-6.2,8.6c5.6-3.4,7.4-1,9.8,1.4L7.4,46l4.1-1.2c1.5,1.4,3.3,2.5,6.2,2.3
		c4.9-0.4,9.2-1.9,10.3-0.6c0.8,1-0.1,1.6-1.9,1.6H2.9l9.3,5c-0.9,0.7-3.5,3.9-5.3,3.9c-1.8,0-5.8-2.8-6.9,2.1
		c4.2-0.7,6.3,8.4,15,1.1L10.2,68l15.6-8.7c0,2.5-0.4,4.3-0.9,5.7l-8.2,2.3l7.4-0.8c-3,3.9-8.9,1.9-10.9,6.6
		c-1.4,3.3,2.1,4.9,0.9,5.9c-2.1-0.1-4,1.8-2.4,4.3c1.1,1.7,4.6,2.8,6.4-1.2c2.1-4.9-0.4-5.3,7-8l-1.2,10.9l12.6-20.3
		c4.2,5.3-3.5,4.8-3.9,10.2c-0.1,1,0,2,0.2,2.8l-3.2,3.6l3.7-2.2c1.7,4.4,5.1,6.7-1.9,11.9c0.6,0.7,10.1,1.2,11-5.7l5,6.2V74.3
		c0.6,3.1,4.8,5.4,4.5,6.9c-0.3,1.6-2.6,7.5-2.6,7.5l1.9-2.5c0.3,3.5,0.9,4.2,1.7,5.1c1.3,1.5,4.2,2.1,4.2,3c0,1-1.8,0.4-1.9,1
		c-0.1,1,4.7,1.3,5.2-2.8c0.4-3.7-4-3.9-3-7.9l6.1,3.9l-8.6-24.9c3.5,1.8,3.4,15.7,9.3,16.9l0.2,4.7l0.6-4.6c0.4,0,0.9-0.1,1.4-0.2
		c-2.8-0.7-5.4-5.9-6.2-10.8c-0.8-4.9-4.5-5.9-1.8-13.1c-0.8,6.6,3.5,8.6,4.8,9.9c1.3,1.3,2.6,5.6,5,7.6c1.8,1.5,4.1,2,5.9,3.6
		c3.6,3.2-0.2,9.8-1.4,9.8c0.1-0.4,1.3-1,1.3-4.2c0-3.3-4.6-5.3-6.4-7.4c-1.8-2.1-3.6-8-5.7-9.1c1.1,2,2.3,8.8,5.3,11.3
		c1.6,1.4,5.5,2.4,5.5,5.9c0,3.5-3.2,5.9-2.1,5.7c2.9-0.3,7.1-6.4,6.2-9.8l2.9,0.6L67.5,68c5.2,0,7.9,0.5,11.4,9.2l-0.1-2
		c1.5,1.6,9.5,3.1,10.9-2.4c-3.8,0.6-6.6-1-7-2L82.1,71c-0.6-1.3-0.7-2.3-0.7-3.8h6.1l-8.9-5.3c1.7,0.2,3.2-0.5,4.5-1.5l2.6,3.2
		l-1.6-3.9c1.7-1.3,3.1-2.8,4.9-2.8c4.8-0.1,1.4,5.6,3.2,5.7C94.2,62.5,96.3,56,91.6,53.2z M82.5,39.4c2.1,0.9-4.5,7.4-6.5,7.2
		C80.3,45.3,80.4,38.5,82.5,39.4z M15.4,15.6c-1.2,2.1-1,6.1,3.9,7.2C11.1,24.6,11.3,15.2,15.4,15.6z M8.7,41.1
		c-3.8-2.1-7.1,0.4-7.1,0.4C2.7,37.7,9.7,37.4,8.7,41.1z M10.4,39.6c-0.6-0.8-1.1-1.4-1.7-1.6c-0.8-0.3-1.7-0.2-2.4-0.2
		c-1,0-1.8,0.1-2.1-0.5c-0.2-0.4,0-0.8,0.5-1.2c0.5-0.4,1.3-0.6,2-0.7c0.9-0.1,1.6,0.2,2.1,0.6c0.5,0.4,0.7,0.5,0.8,0.4
		c0.1-0.1,0.1-0.3,0.1-0.5c0-0.1,0-0.3,0-0.2c1.4,0.2,2,1.1,2.7,1.9c1.2,1.4,2.9,3.5,7.3,2.8C18.6,44.2,12.4,43,10.4,39.6z
		 M13.9,44.9c-0.2-1.7,8.2-3,8.3-0.5C22.2,46.5,14.1,46.8,13.9,44.9z M30.3,47.7c0.9,1-4.7,3.5-7.4,2.5
		C27.5,50.3,29.4,46.7,30.3,47.7z M24,51.4c3.1,0,5-1,5.8-1.8c-0.3,2.3-2.7,3.1-5.8,3.1c-3.1,0-5.9-3.4-8.2-1.1
		c4.1-0.5,4.7,3.9,9.3,2.4c-4,4.3-6.9-3.3-11.5-1.1C16,47.2,20.9,51.4,24,51.4z M1.3,58.3c2.4-3.5,4.2,1.3,8.2-1.4
		c1.3,2.1-1.9,3.4-3.8,2.2C3.8,58,2.3,58,1.3,58.3z M12.9,60.9c-1.7,1.4-6.2,2.7-6.2-0.2c4.7,0.9,5.7-5.7,9.8-3.8
		C15.5,57.1,14.6,59.5,12.9,60.9z M12.9,56.2c1.9-4.6,5-1.4,8.1-0.4c3,1.1,5.8-0.9,7.5-3.1C23.7,63.4,16.9,52.6,12.9,56.2z M24.5,72
		c-1.6,0.9-3.6,1.1-4,0.4c-0.5-0.8,1.4-1.3,3-2.3c1.4-0.9,2.5-2.4,3.2-1.7C27.4,69.2,26.2,71,24.5,72z M21,69.4c2.9-0.7,4.1-3,5.3-6
		c0.1,1.7-0.8,5.6-4.6,6.9c-3.7,1.3-6.4,4.8-7.4,3.4C13.4,72.3,18.1,70.1,21,69.4z M14.3,83.8c-1.3,0.2-2.2-0.7-2.3-1.6
		c-0.3-1.7,1.4-2.2,1.7-2.1c0.2,0.2,0.2,0.5,0,0.7c-0.1,0.2-0.1,0.4,0.1,0.6c0.2,0.1,1.4-0.1,1.8-2.6C17,81.7,15.6,83.6,14.3,83.8z
		 M30.7,70.5c-7.3,6.3-13.1,2.6-14.4,4.9c0,0,1.3,0.1,1.7,1.4l1.4-0.4c-1.4,0.9-1.6,7-3.1,6.6c2.5-3.8-2.8-6.2-0.6-8.3
		c2.6-2.4,8.5,1.5,12.3-5.5c2.5-4.5-2.7-13.3,6-19.8c-1,0.9-5.6,5-4.2,16.1c1.5-2.4,0.2-11.5,4.5-14.8c-3.4,4.2-0.9,12.1-4.7,18.6
		c5.3-3.8,2.7-14.2,5.3-16.9C33.1,55.7,37.2,64.9,30.7,70.5z M43.7,47.1c-1,0.3-1.2,2,1.8,2.7c-1,0.1-3.3-0.3-3.4-2
		C42,46.5,43.8,46.4,43.7,47.1z M46.5,51.5c0.3,0.7-0.5,3-1.2,3.2c-0.7,0.2-2.8-0.2-3.3-1.6c2,0.5,2.1-0.2,2.1-0.2s-1.8,0-2.6-1.3
		c1.4,0.5,2.1,0,2.1,0s-2.8-1.1-2.9-1.7C43.6,50.1,46.5,51.5,46.5,51.5z M34.5,90c0,0,2.5-1,2.5-4.9c0-3.8-2.5-5.7-2.5-9.3
		c0-6.1,5.8-5.2,5.8-8.6c0-3.5-5.1-4.4-3.7-13.2c0,7.5,5.2,9.2,5.2,13.1c0,3.9-6.1,3.8-6.1,8.8c0,4.5,2.6,5.5,2.6,9.3
		C38.3,89.3,35.4,90.2,34.5,90z M46.2,68.3c-1.1,2.9-4,4.1-4.7,7.6c-1.2,5.7,2.6,10.4-4.1,14c0,0,1.7-2.4,1.7-4.7c0-3.3-2-5.8-2-9.2
		c0-4.3,5.6-5.3,5.6-9.2c0-4-3.6-6.4-3.3-9.9c1.1,2.9,4.9,6.2,4.9,9.9c0,3.6-5.1,5.4-5.9,8.8c-0.7,3.3,1.7,6.1,1.6,8.1
		c0.5-2.2-0.8-5.3-0.1-7.9c0.9-3.6,4-5.1,4.9-8.1c0.9-3-0.3-5.1-2.4-8.8C46.3,61.5,47.2,65.8,46.2,68.3z M47.9,63.6
		c-0.3-2.1-3-3.8-2.3-4.5C46.3,58.4,48.1,61.1,47.9,63.6z M47.4,56.4c-1.4,0.1-3.7-0.5-3.8-0.5c-0.2-0.1-0.4-0.2-0.4-0.3
		c0-0.1,0.1-0.2,0.4-0.2c0.1,0,2.5,0.1,3.8,0.1c1.3,0,3.7-0.1,3.7-0.1c0.4,0,0.4,0.1,0.4,0.2c0,0.1-0.2,0.3-0.4,0.3
		C51.1,55.9,48.8,56.5,47.4,56.4z M48.5,60.2c4.8,5.6-1.6,8.9,1.7,16.1C45.4,69.8,51.8,66.7,48.5,60.2z M58.1,94.2
		c1.2-3.4-3.5-0.2-4.3-4.5C55.1,92.2,60.8,90.5,58.1,94.2z M58.4,78.7c0.6,2.4-2.5,4.7-1.9,7.9c0.6,3.4,4.5,3.8,2.9,6.8
		c1-3.1-3.9-2.2-5.5-4.6c-1.6-2.5,0.7-4,0.5-7.7c-0.2-3.7-3.5-3.4-4.3-8.5c-0.7-4.4,3.1-8.7,0.4-13.5c4.7,4-2.1,12.4,2.6,16
		c-3.4-5.2,2.2-11.1-0.6-17c3.6,2.9,0,11.8,1.4,14.5C55.4,75.5,57.8,76.3,58.4,78.7z M58.9,53c3.4,3,0.7,7.4,2.5,10.6
		C57.7,59.5,60.8,57.7,58.9,53z M75.8,70.1c-0.2-1.2-2.8-1.4-2-2C74.5,67.4,76.4,69.1,75.8,70.1z M91.2,56.3
		c-2.4-2.4-5.6-0.1-7.5,2.4c-0.3,0.4-0.4,0.1-0.3-0.2c1.5-4,6.2-5.7,8.1-2.2C91.7,56.5,91.5,56.6,91.2,56.3z M65.3,77
		c-2.1-3.7-3.8-11.8-6.3-13c2.4,3.6,2.4,9.7,5.2,13.6c2.2,3.1,5.7,2.4,7.6,5.4C71.3,79.8,67.2,80.4,65.3,77z M40.3,27.2
		c-0.3,0-0.5-0.1-0.7-0.2c-1.2-0.7-1.8-2.8-3-2.6C37.4,25,37,26.9,38,28c0.5,0.5,1.1,0.8,1.9,0.8c1.4,0,2.5-1.1,2.5-2.5
		c0-0.8-0.4-1.5-1-2c-0.9-0.7-2.2-1.2-5.8-2.4c-8.8-3,4.4-12-1.7-17c3.3,7.2-6.4,11.5-1.4,16.6c2.2,2.3,7,1.9,8.6,3.6
		c0.2,0.2,0.4,0.6,0.4,0.9C41.6,26.7,41,27.2,40.3,27.2z M36.1,38.3c1.5,2.2,5,2.4,6.4,3.1c0.3-0.5,1.4-4.4-1.8-5
		C39.4,36.2,37.7,37.6,36.1,38.3z M39.2,39.9c-1.4-0.6-0.8-3.3,1.1-2.9C40.1,37.2,39.2,38.9,39.2,39.9z M40.2,40.3
		c0.6-0.7,1.1-2.3,1.2-2.6C42.8,38.8,41.4,40.7,40.2,40.3z M34.2,15.2c-4.9,9.3,12.1,5.1,9.9,13C47.6,19.6,32.4,24.4,34.2,15.2z
		 M124,38.6h-10.9v18.7h2.5v-7.9h8.4c4.8,0,7.2-1.8,7.2-5.4C131.2,40.4,128.8,38.6,124,38.6z M123.4,47.2h-7.9v-6.4h7.9
		c3.9,0,5.4,0.9,5.4,3.2C128.9,46.4,127.3,47.2,123.4,47.2z M153.9,49.6c0,4-2.5,6.1-7.1,6.1c-4.7,0-7.1-2.1-7.1-6.1v-11h-2.5v11
		c0,6.8,5.2,8.2,9.6,8.2c4.4,0,9.6-1.4,9.6-8.2v-11h-2.5V49.6z M179.3,47.5c1.1-0.6,2.7-1.4,2.7-3.9c0-4.9-5.1-4.9-7.3-4.9H164v18.7
		h9.5c3.2,0,9.1,0,9.1-5.3C182.6,49.1,180.5,48,179.3,47.5z M166.4,40.7h6.9c3.2,0,6.2,0,6.2,2.9c0,2-1.8,2.9-5.4,2.9h-7.7V40.7z
		 M174.9,55.1h-8.5v-6.5h8.8c3.3,0,4.9,1.1,4.9,3.3C180.1,54.8,177.5,55.1,174.9,55.1z M192.7,38.6h-2.5v18.7h16.4v-2.2h-13.9V38.6z
		 M212.2,57.4h2.5V38.6h-2.5V57.4z M232,55.6c-5.1,0-8.3-2.8-8.3-7.3c0-5.2,2.9-8,8.1-8c4.1,0,6.5,1.7,7.6,4.3l2.1-1
		c-1-2.5-4.1-5.5-9.8-5.5c-6.6,0-10.6,3.7-10.6,9.9c0,6,4.1,9.8,10.6,9.8c5,0,8.2-1.9,10-5.5l-2.2-1.1C238.2,54,235.7,55.6,232,55.6
		z M248.4,57.4h2.5V38.6h-2.5V57.4z M267.7,46.5c-3.6-0.3-6.7-0.6-6.7-3c0-2.8,3.9-3.2,6.2-3.2c5.1,0,6.8,2.5,7.5,3.3l1.8-1.5
		c-0.5-0.7-2.9-3.9-9.3-3.9c-5.6,0-8.7,2-8.7,5.7c0,4.1,4.8,4.6,9,5c3.6,0.4,7.1,0.7,7.1,3.2c0,3.4-5.5,3.6-6.6,3.6
		c-6.2,0-7.7-3.1-8.3-3.8l-1.9,1.6c1.3,1.4,3.4,4.4,10,4.4c6.9,0,9.3-3,9.3-5.8C277,47.4,272.1,46.9,267.7,46.5z"/>
</g>
</svg>
