<?xml version="1.0" encoding="utf-8"?>
<!-- Generator: Adobe Illustrator 19.2.1, SVG Export Plug-In . SVG Version: 6.00 Build 0)  -->
<svg version="1.1" id="Layer_1" xmlns="http://www.w3.org/2000/svg" xmlns:xlink="http://www.w3.org/1999/xlink" x="0px" y="0px"
	 viewBox="0 0 217 40" style="enable-background:new 0 0 217 40;" xml:space="preserve">
<style type="text/css">
	.st0{fill:none;}
</style>
<g>
	<path class="st0" d="M17.5,11.1c0-1.1,0.9-1.8,3.1-1.8c2.7,0,8.1,1.8,10.3,4.5l6.6-6.3C35.4,4.7,28.4,0,19.4,0C8.8,0,2,4.7,2,12.3
		c0,14.8,20.1,10.6,20.1,15.7c0,1.2-0.9,2.1-3.4,2.1c-4.1,0-8.7-1.8-12-4.8L0,32.7C3.5,36.4,10.1,40,18.8,40
		c11.5,0,18.7-4.7,18.7-13.6C37.5,12.9,17.5,16.8,17.5,11.1z M41.8,39.3h13.5V0.7H41.8V39.3z M78.6,0.8H60.9v38.7h17.7
		c11.3,0,19.9-5.2,19.9-19.4C98.4,7.2,91.4,0.8,78.6,0.8z M78,29.4h-3.7V10.8H78c4.2,0,6.1,1.7,6.1,9.2S82.2,29.4,78,29.4z M126,0.7
		h-13.5v38.7h30.2V28.2H126V0.7z M161.3,23.9h15.1v-8.2h-15.1v-3.9h17.9V0.7h-31.4v38.7h31.9V28.2h-18.4V23.9z M198.6,28.2v-4.3
		h15.1v-8.2h-15.1v-3.9h17.9V0.7h-31.4v38.7H217V28.2H198.6z"/>
</g>
</svg>
