<?xml version="1.0" encoding="utf-8"?>
<!-- Generator: Adobe Illustrator 19.2.1, SVG Export Plug-In . SVG Version: 6.00 Build 0)  -->
<svg version="1.1" id="Layer_1" xmlns="http://www.w3.org/2000/svg" xmlns:xlink="http://www.w3.org/1999/xlink" x="0px" y="0px"
	 viewBox="0 0 212 35" style="enable-background:new 0 0 212 35;" xml:space="preserve">
<g>
	<path class="st0" d="M23.2,12.8C16.9,12,9.1,11.9,9.1,8.7c0-2.7,4.1-4.2,9.7-4.2c6.3,0,16.4,1,18.4,7.5h4.1V1.6h-4.1h0
		c0,1.2-0.4,1.9-1.2,1.9C34.4,3.5,29,0,17.9,0C8.5,0,0,3.5,0,10.9c0,9.5,14.5,9.8,21.9,10.8c6.7,0.9,12.2,0.7,12.2,4.4
		c0,3.9-8.6,4.5-12,4.5c-4.7,0-15.9-1.5-17.5-8.7H0.6v11.8h4.1c0-1.5,0.4-2.2,1.2-2.2c2.8,0,6.7,3.5,19.2,3.5
		c7,0,18.1-2.8,18.1-10.9C43.1,13.7,31.3,13.9,23.2,12.8z M75.4,0C60.5,0,50.6,7.5,50.6,17.5c0,10,9.9,17.5,24.8,17.5
		s24.8-7.5,24.8-17.5C100.2,7.5,90.3,0,75.4,0z M75.4,30.3c-8.6,0-14.2-5.5-14.2-12.8c0-7.3,5.7-12.8,14.2-12.8
		c8.6,0,14.2,5.5,14.2,12.8C89.6,24.8,84,30.3,75.4,30.3z M137.1,5.9h4.8c1.1,0,1.7,0.5,1.7,1.6V21l-22.8-19h-16.4v4h4.8
		c1.1,0,1.7,0.5,1.7,1.6v19.9c0,1.1-0.6,1.6-1.7,1.6h-4.8v4h19.6v-4h-4.8c-1.1,0-1.7-0.5-1.7-1.6V11.2l26.2,21.9h6.6V7.5
		c0-1.1,0.6-1.6,1.7-1.6h4.8v-4h-19.6V5.9z M192.8,1.9v4h2.3c0.6,0,0.9,0.2,1.1,0.6c0.2,0.4,0.1,0.7-0.2,1.1l-7.8,8.1l-7.8-8.1
		c-0.3-0.3-0.4-0.7-0.2-1.1c0.2-0.4,0.5-0.6,1.1-0.6h2.3v-4H160v4h3.8c1.6,0,2.9,0.5,4,1.6L181,21.4v6.1c0,1.1-0.6,1.6-1.7,1.6h-4.8
		v4h23.2v-4H193c-1.1,0-1.7-0.5-1.7-1.6V21l12.9-13.4c1.1-1.1,2.4-1.6,4-1.6h3.8v-4H192.8z"/>
</g>
</svg>
