<?xml version="1.0" encoding="utf-8"?>
<!-- Generator: Adobe Illustrator 19.2.1, SVG Export Plug-In . SVG Version: 6.00 Build 0)  -->
<svg version="1.1" id="Layer_1" xmlns="http://www.w3.org/2000/svg" xmlns:xlink="http://www.w3.org/1999/xlink" x="0px" y="0px"
	 viewBox="0 0 279 99" style="enable-background:new 0 0 279 99;" xml:space="preserve">
<style type="text/css">
	.st0{fill:none;}
</style>
<g>
	<path class="st0" d="M49.2,0C22,0,0,22.2,0,49.5C0,76.8,22,99,49.2,99c27.2,0,49.2-22.2,49.2-49.5C98.5,22.2,76.4,0,49.2,0z
		 M49.2,94.6c-24.7,0-44.8-20.2-44.8-45c0-24.9,20.1-45,44.8-45C74,4.5,94,24.6,94,49.5C94,74.4,74,94.6,49.2,94.6z M61.1,66.8
		c4.9-6.1,4-15.1-2.1-20c-6.1-5-15-4-19.9,2.1c-3.4,4.2-4,9.8-2.1,14.5c-0.7-3.2-0.1-6.7,2.1-9.4c3.8-4.7,10.6-5.4,15.3-1.6
		c4.7,3.8,5.4,10.7,1.6,15.4c-2.2,2.7-5.5,4.1-8.7,4C52.4,72.8,57.7,71,61.1,66.8z M43.7,54.3c-2.4,1.2-4.1,3.6-4.2,6.4
		c-0.2,4.1,3,7.6,7.1,7.8c4.1,0.2,7.6-3,7.8-7.2c0.1-2.9-1.4-5.4-3.7-6.8c1.3,1.1,2.1,2.8,2,4.6c-0.1,3.2-2.8,5.6-6,5.5
		c-3.2-0.1-5.6-2.8-5.5-6C41.3,56.9,42.3,55.3,43.7,54.3z M72.6,19.8L72.6,19.8C56.5,6.7,32.9,9.1,19.8,25.3
		c-9,11.2-10.7,26-5.5,38.5l-0.3-1c-0.4-2-0.6-4-0.6-6.1C13.4,40.8,26.1,28,41.8,28c14.2,0,26,9.5,27.9,23.6
		c2,14.8-7.1,24.7-17.3,25.5C42.1,77.9,32.9,71,31.6,60.7C30.4,50.4,37.7,41.1,48,39.8c6-0.7,11.6,1.5,15.5,5.5
		c-5-7.2-13.6-11.4-22.8-10.3c-13.3,1.6-22.8,13.7-21.2,27.1c0,0,2.4,25.1,30.7,24.9C71.1,87,87.4,70.3,87.4,49.7
		C87.4,37.5,81.5,26.7,72.6,19.8z M198.3,47.5h-9.7c-2.8,0-3.2-0.7-3.2-1.9v-1c0,0,10.5,0,10.9,0c0.4,0,0.9,0.2,0.9,0.8v0.2
		c0,0,5.2,0,5.2,0c0-2.4,0.1-5.5-5.6-5.5h0h-17.1c0,0,0,4.9,0,6.8c0,1.9,0.8,5.1,5.3,5.1c3.7,0,12.3,0,12.3,0s0,0.9,0,1.1
		c0,1.2-0.1,1.7-2.4,1.7c0,0-8.1,0-9.1,0c-1.1,0-1-0.9-1-0.9v-0.3h-5.3c0,0,0,0.7,0,1.5c0,1.7,0.7,4.1,4.6,4.1c0,0,12.4,0,13.5,0
		c2.6,0,5.3-1,5.3-4.3c0-0.8,0-1.9,0-3.1C203,49.9,202.6,47.5,198.3,47.5z M131.3,51.1c0,1.2-0.2,2.1-0.7,2.6
		c-0.5,0.5-1.3,0.8-2.5,0.8h-5.7c-1.2,0-2-0.2-2.5-0.8c-0.5-0.5-0.7-1.4-0.7-2.6V40.2h-5.7v12.1c0,2.4,0.6,4.1,1.9,5.2
		c1.2,1.1,3.2,1.7,5.8,1.7H137l0-19h-5.7V51.1z M162.3,49.4c1-0.3,1.7-0.7,2.1-1.3c0.4-0.6,0.7-1.6,0.7-3c0-1.8-0.5-3.1-1.6-3.8
		c-1.1-0.7-2.8-1.1-5.2-1.1h-16.5v19H160c1.8,0,3.2-0.4,4.2-1.1c1-0.7,1.5-2.2,1.5-4.1c0-1.5-0.2-2.5-0.8-3.2
		C164.4,50.1,163.5,49.6,162.3,49.4z M147.4,44.6h10.2c1.1,0,1.7,0.5,1.7,1.5c0,0.5-0.1,1.1-0.4,1.3c-0.3,0.2-0.7,0.3-1.3,0.3h-10.2
		V44.6z M159.3,54.5c-0.3,0.2-0.9,0.3-1.6,0.3h-10.3v-3.3h10.3c0.7,0,1.2,0.1,1.5,0.4c0.4,0.2,0.5,0.8,0.5,1.4
		C159.8,53.8,159.6,54.3,159.3,54.5z M169.4,59.2h5.7v-19h-5.7V59.2z M235.4,59.2h5.7V53h13.2v-4.8h-13.2V45h13.8v-4.8h-19.6V59.2z
		 M257.1,40.2V45h8.1v14.2h5.8V45h8.1v-4.8H257.1z M208,41.7c-1.3,0.9-2.1,2.5-2.1,5.1v5.6c0,2.6,0.7,4.4,2,5.4
		c1.4,1,3.1,1.4,6.2,1.4h8.7c3.1,0,4.7-0.4,6.1-1.4c1.3-1,2-2.5,2-5.4V40.2h-16.8C210.6,40.2,209.3,40.7,208,41.7z M225.2,45v5.8
		c0,1.6-0.2,2.3-0.6,2.8c-0.5,0.5-1.3,0.8-2.6,0.8H215c-1.5,0-2.2-0.3-2.6-0.8c-0.4-0.5-0.7-1.3-0.7-2.9v-2c0-1.3,0.2-2.1,0.7-2.7
		c0.5-0.6,1.4-0.9,2.9-0.9H225.2z"/>
</g>
</svg>
