<?xml version="1.0" encoding="utf-8"?>
<!-- Generator: Adobe Illustrator 19.2.1, SVG Export Plug-In . SVG Version: 6.00 Build 0)  -->
<svg version="1.1" id="Layer_1" xmlns="http://www.w3.org/2000/svg" xmlns:xlink="http://www.w3.org/1999/xlink" x="0px" y="0px"
	 viewBox="0 0 215 103" style="enable-background:new 0 0 215 103;" xml:space="preserve">
<g>
	<path class="st0" d="M114.4,33.8c0.7-0.4,1.8,0.2,1.8,0.2s2.1-0.7,0.4-0.6c-1.8,0.1-1.8-1.4-3-1.1c-1.2,0.3-1-1.1-1.9-1.1
		c-0.7,0-1.6-0.3-1.9,0.1c-0.5,0.8,0.6-0.3,1.7,0.6c1.6,1.4,1.5,0.4,2.5,1.2C114.6,33.7,114.1,34,114.4,33.8z M133.4,77.5
		c3.1-3.2,2-3.9,4.2-5c2.3-1.2,2.5,0.1,3.3-0.9c1.7-2.3,1.1-2.1,1.9-3.6l0.5-0.8c0,0,1.1-0.9,0.7-1.5c-0.4-0.5,0.1-1.3,0.1-1.3
		h-28.6l3.2,2.8c0.7,0.3,1.6,1,2,2c1,2.5-0.5,0.5-0.5,4.3c0,3.5-1,2.9-1,2.9s-0.2,4.1-2.4,6.7c-1.4,1.4-0.3,2.5-0.3,2.5
		s-0.5,0.3-1.1,3.2c-0.2,1,1,2.5,2.1,2.1c0.8-0.3-2-0.5,1-1.8c1.2-0.5,0.2-1.4,0.2-1.4s2-0.2,3.1-3.1c1.9,0.3,1.2-0.9,5.2-1.8
		c1.1-0.2,1.3-0.5,1.1-1.5C128,80.3,129.5,81.5,133.4,77.5z M123.2,35.2l0.1,0.6l0.6-0.4L123.2,35.2z M117.6,35.2h0.4l0.6,0.5
		c0.9-0.8,2-0.5,3-0.8c-1-0.4-1.9-1.2-3-1.3C117.1,33.8,118.5,34.5,117.6,35.2z M92.9,5.8c-0.2,0.2-0.3,0.3-0.3,0.4
		c-1.4,0.9-0.9,1.9-1.6,2.1c-1.2,0.4-2.5,4.1-2.5,4.1s0.8,0.5-1.6,3.1c-2,2.2-2.5,5.5-2.5,5.5s1.3,2.3,1,5c-0.2,2.1-0.3,0.5,0.6,2
		c0.5,0.9,1.1,3.9,1.4,2.7c0.7-2.3-1.2-4.4-0.9-6.6c0.1,0.3,0.7-0.9,0.7,0.2c-0.1,2.8,3.5,8.2,3.5,8.2s-1.3,1.3,0.1,1.3l-0.4,0.8
		c0,0,1-0.1,1.7,0.5c0.7,0.5,1.2,1.2,1.8,1.2H104c0,0,0.7-3,1.3-3.6c0.6-0.5-1.2,0-1.7-0.5c-0.5-0.5-0.9,0.5-1.1,1
		c-0.3,0.5-0.6,1.4-1.4,1.7c-0.8,0.3-2.7,0.4-3.1,0.4c-0.4,0-1.6-2.2-1.6-2.2c-1-1.7-0.3-3.8,0.9-5.8c0.9-1.5,3.2-2.2,5.2-1.4
		c2.3-1.8,2.8,0.1,4.8-0.7c2.6-1.1,1.2,3,3.7,4.1c1.1-2.8-2.4-4.9-0.2-6.2c1.6-0.9,2.7-1.5,3.4-2.8c0.9-1.8,1.3-3.1,2-3.3
		c1.6-0.5,1.3-2.1,1.3-2.1s1.7,0.5,3-0.7c-1-0.5-2.5-1-2.1-2.1c0.5-1.3,3.9,1.3,4.9-0.8c-2.1-0.9-4.2-2.8-5.4-3.3
		c-0.9,0.9-1.4,0.6-2.5-0.3c-1.9-1.5-2-0.1-3.2-1.1c-0.9,1.9,0.5,1.7,0.9,2.2c1.2,1.3-1.2-1.2-1,2.2c0.1,0.9-1.2,1-2.2-0.9
		c-0.5-1-4.5-0.8-5.1-1.7c0.6-1.1,5.3-5,12.5-4c-0.2-0.1-0.4-0.2-0.7-0.2c19,2.8,34.6,15.5,40.5,32.3C150.7,15.9,132.9,0,108.6,0
		C82.5,0,66.9,15.6,60.3,35.9C65.5,21.7,77.6,10.5,92.9,5.8z M108.7,99.4c-22.3,0-41.3-13.4-48.3-32.1c6.7,20.1,23.4,35.7,48.2,35.7
		c23.4,0,41.9-15.8,48.4-36.1C150.2,85.8,131.1,99.4,108.7,99.4z M14.5,42.3v10.4c0,2.3-1.6,3.3-3.9,3.3c-2.3,0-3.9-1-3.9-3.3V42.3
		L8,40.9H0l1.2,1.4v10.5c0,5.2,2.9,7.2,9.5,7.2c6.5,0,9.5-2,9.5-7.2V42.3l1.2-1.4h-8L14.5,42.3z M43.4,42.3v9.4l-9.6-10.9h-6
		l1.2,1.4v15.9l-1.2,1.4h6.7l-1.2-1.4v-9.6l10.2,11h4.3V42.3l1.2-1.4h-6.7L43.4,42.3z M56.4,59.6h8l-1.2-1.4V42.3l1.2-1.4h-8
		l1.2,1.4v15.9L56.4,59.6z M69.2,40.9L78,59.6h3.9l8.9-18.8h-6.7l1.2,1.4l-4.8,10.3l-4.6-10.3l1.2-1.4H69.2z M111.9,44.8l1.4,1.2
		v-5.1H95.6l1.2,1.4v15.9l-1.2,1.4h17.8v-5.1l-1.4,1.2h-9.7v-3.6h6.1l1.4,1.2v-6.1l-1.4,1.2h-6.1v-3.6H111.9z M121.7,42.3v15.9
		l-1.2,1.4h7.9l-1.2-1.4v-5.3h2.4l3.6,5.3l-1.2,1.4h8.4l-5.1-7.4c2.5-1,4.3-3,4.3-5.7c0-3.1-1.9-5.7-7.3-5.7h-11.8L121.7,42.3z
		 M127.2,44.8h4.3c1.2,0,2.4,0.6,2.4,2.2c0,1.3-1.3,2.4-3.1,2.4h-3.6V44.8z M158.5,48.4c-2.3-0.7-5.5-1.2-5.5-2.7
		c0-0.7,0.9-1.2,2.4-1.2c2,0,5.4,0.8,8,2.1v-6.3l-1.5,1.4c-1.6-0.6-4.3-1.3-6.2-1.3c-6.4,0-8.5,2.8-8.5,5.4c0,3.5,2.3,5,6,6.3
		c2.7,0.9,5.2,1,5.2,2.6c0,1.3-1.6,1.5-2.4,1.5c-2,0-5.6-0.7-8.8-2.8v6.9l1.5-1.6c1.5,0.6,4.8,1.5,7.5,1.5c5.6,0,8.1-2.4,8.1-6
		C164.4,51.1,161.9,49.5,158.5,48.4z M176.9,40.9l0.7,1.4l-8.4,17.3h6.9l-1.2-1.4l0.9-2h9l0.9,2l-1.2,1.4h8l-9.3-18.8H176.9z
		 M177.3,52.9l3.1-6.7l3.1,6.7H177.3z M213.6,55.7h-9.1V42.3l1.2-1.4h-7.9l1.2,1.4v15.9l-1.2,1.4H215v-5.1L213.6,55.7z"/>
</g>
</svg>
