<?xml version="1.0" encoding="utf-8"?>
<!-- Generator: Adobe Illustrator 19.2.1, SVG Export Plug-In . SVG Version: 6.00 Build 0)  -->
<svg version="1.1" id="Layer_1" xmlns="http://www.w3.org/2000/svg" xmlns:xlink="http://www.w3.org/1999/xlink" x="0px" y="0px"
	 viewBox="0 0 98 146" style="enable-background:new 0 0 98 146;" xml:space="preserve">
<style type="text/css">
	.st0{fill:none;}
</style>
<g>
	<path class="st0" d="M52.5,60.8c0,0-0.3,1.6,1.5,2c1.4,0.3,3.7,1.3,4.4,3.1c0.1,0.4,0.6,0.4,0.8,0c1-1.6,3.5-2.2,4.9-2.2
		c1.9-0.1,1.8-1.7,1.8-1.7s0.1-1.6-6.6-2.3C52.6,59,52.5,60.8,52.5,60.8z M49.5,35.7c-2,0-3.2,0.4-5.5,3.1c-4,4.9-5.5,9.8-1.4,13.5
		c4.1,3.7,8.2-2.1,10.5-4.8c3.2-3.7,2.7-4.2,1.8-7.6C54.2,37,51.5,35.7,49.5,35.7z M78.2,57.3c5-2.3,5.1-7.5,2.8-13.3
		c-1.3-3.3-2.4-4-4.3-4.6c-1.9-0.6-4.8-0.2-6.5,2.5c-1.8,2.9-2.5,3.2-0.6,7.7C70.9,52.8,73.1,59.6,78.2,57.3z M87.5,59.2
		c-8.5,7.3-13.4,6.3-13.4,6.3s-4.1-0.3-5.8,1.8c-1.7,2.1-1.4,3.5-4.9,2.5c-3.5-1.1-3.5-2-6.8-1.6c-3.2,0.4-5.2,0.8-6.5-1.9
		c-1.3-2.6-2.7-4.3-5.3-4.8c-2.6-0.5-14.3-6-14-21.6c0.3-14.5,6.9-19.5,6.9-19.5s1.1-1.2,2.2-0.7c1.1,0.5,2.8,0.6,4.9-1.3
		c2.1-1.9,3.4-3.3,7.2-4.6c0,0,2.6-0.4,2.5-2.9c-0.1-2.5-2.2-8.1-4.8-9.8c-1.2-0.7-2.7-1.1-4.4-1c-2.1,0-4.3,0.7-5.9,2.1
		c-2.8,2.4-5.7,5-5.6,8.3c0.1,3.3,2,5.2,2,5.2s1.3,1,0,2c-1.3,1-16.4,10.6-15.6,30.4c0,0,0.4,5.1-0.2,10.6c-0.4,3.9,1,8.7,1.8,11.1
		c0,0,0.4,1-0.5,0.4C17,67.6,13.7,63.7,10.9,59c-2.6-4.7-4-10-4-15.8C6.9,31,13.5,20.4,23.2,15C9.9,18.7,0,31.2,0,46
		c0,1.1,0.1,2.3,0.2,3.4c0.1,2.6,0.4,6.6,1.1,8.3c1.1,2.4,1,7.7,1,8.6c0,0.9,0.3,29.9,17.5,29.8c0,0,8.2,0.2,8.2-3.1
		c0-2.9-0.8-3.2-1.6-4.9c-0.7-1.6-1.3-1.7-0.9-6.9c0,0,0-1.1,0.4-1.1c0.4,0,5.2,14.2,11.4,21.6c6.2,7.4,12.4,8.2,17.1,8.2
		c0,0,8.8,0,8.8-4.4c0-4.4-4-2.6-4-16.6c0-14,6.8-13.3,7.6-9.9c0.8,3.4,1.5,6.2,0.1,15.4c-1.4,9.2,2.4,10.3,5.8,10.3
		c3.4,0,21.5,0.6,24.6-50.9c0,0,0.4-8.3-2.4-15.5C94.9,38.2,96,51.9,87.5,59.2z M62.9,72.5c-1.3,1.5-2.8,1.5-4.8,1.6
		c-2,0.1-4.1-1.8-4.1-1.8c-0.1-0.2-1.1-1.2-0.6-1.9c0.1-0.2,0.4-0.3,0.6-0.3c0.6,0,1.4,0.4,2.3,0.7c1.3,0.5,4.3,0.3,5.5,0.2
		C63.1,70.9,63.9,71.4,62.9,72.5z M93.3,8.4C90.8,5.6,86,4.8,83.2,6.2c-2.8,1.4-5.5,6.7-5.9,9.2c-0.4,2.5,2.1,3.2,2.1,3.2
		c3.6,1.7,4.8,3.3,6.6,5.4c1.8,2.1,3.6,2.2,4.7,1.8c0,0,3.7-2.2,4.7-3.5l0,0c0,0,2.1-1.6,2.5-4.9C98.4,14,95.9,11.1,93.3,8.4z
		 M94.5,119.6c0,0-14.3,0-16.8,0s-2.5,1.7-2.5,1.7s0,19.5,0,22.2c0,2.7,1.7,2.5,1.7,2.5c0-0.1,4.1,0,5.1,0c1.4,0,1.3-2.2,1.3-2.2
		v-10.7h8.1c0,0,1.7-0.1,1.7-1.7c0-1.6-2.1-1.6-2.1-1.6h-7.7c0,0,0-4.4,0-5.5c0-1.1,1.2-1.1,1.2-1.1h10c0,0,1.9,0.2,1.9-1.8
		C96.5,119.5,94.5,119.6,94.5,119.6z M34.3,119.6c-1.1,0-1.8,1.2-1.8,1.2l-5,11.5c0,0-2.2-8.4-3.1-10.8c-0.8-2-2-1.9-2-1.9
		s-1.7,0-4.8,0c-2.5,0-1.1,7.3-1.1,7.3l-3.5,5.2c0,0-2.5-9.9-3.1-11.4c-0.5-1.3-1.8-1.1-1.8-1.1h-5c-2.9,0-1.5,3.8-1.5,3.8
		s7,20,7.6,21c0.6,1,1,1.5,2.1,1.5c0.9,0,1.4-1,1.4-1l6-13.5c0,0,4,10.7,4.6,12.3c0.6,1.6,1.1,2.3,2.3,2.3c1.2,0,1.7-1.3,1.7-1.3
		s8.3-21.9,8.7-23.3C36.2,120.4,35.5,119.6,34.3,119.6z M71.2,119.6c-1.1,0-1.8,1.2-1.8,1.2l-5,11.5c0,0-2.2-8.4-3.1-10.8
		c-0.8-2-2-1.9-2-1.9s-1.7,0-4.8,0c-2.5,0-1.1,7.3-1.1,7.3l-3.5,5.2c0,0-2.5-9.9-3.1-11.4c-0.5-1.3-1.8-1.1-1.8-1.1h-5
		c-2.9,0-1.5,3.8-1.5,3.8s7,20,7.6,21c0.6,1,1,1.5,2.1,1.5c0.9,0,1.4-1,1.4-1l6-13.5c0,0,4,10.7,4.6,12.3c0.6,1.6,1.1,2.3,2.3,2.3
		s1.7-1.3,1.7-1.3s8.3-21.9,8.7-23.3C73.1,120.4,72.4,119.6,71.2,119.6z"/>
</g>
</svg>
